
<?xml version="1.0" encoding="utf-8"?>
<!-- Generator: Adobe Illustrator 15.0.2, SVG Export Plug-In . SVG Version: 6.00 Build 0)  -->
<!DOCTYPE svg PUBLIC "-//W3C//DTD SVG 1.1//EN" "http://www.w3.org/Graphics/SVG/1.1/DTD/svg11.dtd">
<svg version="1.1" id="Layer_1" xmlns="http://www.w3.org/2000/svg" xmlns:xlink="http://www.w3.org/1999/xlink" x="0px" y="0px"
	 width="800px" height="422.98px" viewBox="0 0 800 422.98" enable-background="new 0 0 800 422.98" xml:space="preserve">
<g>
	<path fill="#000000" d="M502.295,86.84c-2.739,1.481-7.63,3.288-9.693,5.789c-3.079,3.716-5.159,8.276-6.533,12.866
		c-1.562,5.248-2.789,10.653-3.007,16.123c-0.232,5.872,1.735,11.113,2.663,16.664c0.307,1.808,1.271,3.675,1.369,5.487
		c0.109,2.096,5.563,0.905,6.911,0.788c2.447-0.207,5.076-0.381,7.467-1.007c3.238-0.804,6.514-1.74,9.682-2.919
		C543.474,125.541,524.079,79.836,502.295,86.84z"/>
	<path fill="#000000" d="M303.365,304.677c-11.633-1.358-16.914,14.83-14.539,27.467
		C297.204,326.521,301.619,316.939,303.365,304.677z"/>
	<path fill="#000000" d="M115.89,185.591c10.171,0.124,20.48-1.36,29.816-5.314c19.567-8.295,30.131-26.424,32.556-46.009
		c2.291-19.467-18.892-37.994-37.783-39.108c-11.387-0.662-23.782,0.584-24.771,12.885c-1.242,15.092-3.26,30.125-4.42,45.205
		C110.695,161.158,106.192,185.477,115.89,185.591z"/>
	<path fill="#000000" d="M133.156,193.109c-5.469,1.161-10.747,2.982-16.234,4.059c-8.236,1.612-6.806,3.447-6.036,11.117
		c0.855,8.437-0.721,13.153,1.397,27.893c0,0,10.286,32.501,28.259,34.108c26.298,2.338,30.251-19.064,27.406-39.111
		C165.159,211.54,153.662,198.401,133.156,193.109z"/>
	<path fill="#000000" d="M299.326,237.614c-3.138,10.794-1.931,19.839,6.468,24.235c5.892,6.412,20.142-6.777,25.042-15.344
		c3.371-9.174,3.498-11.811,3.232-20.209C320.578,220.619,305.679,228.025,299.326,237.614z"/>
	<path fill="#000000" d="M682.449,227.266c0.057,0.034,0.112,0.069,0.169,0.104c-0.009-0.037-0.016-0.076-0.024-0.115
		C682.543,227.253,682.501,227.266,682.449,227.266z"/>
	<path fill="#000000" d="M657.54,224.47c-21.385,9.002-36.779,23.988-40.366,50.802c1.871,4.396,6.838,5.692,11.828,6.953
		c8.326-1.19,14.377-2.995,20.197-8.172c5.164-4.511,8.075-6.451,11.125-10.604c3.425-5.717,6.702-12.322,9.737-19.488
		c2.579-6.08,3.581-16.576,12.388-16.694c-2.515-1.55-5.149-3.774-8.902-4.884C665.352,221.74,666.648,221.74,657.54,224.47z"/>
	<path fill="#000000" d="M783.829,94.065c-11.377-47.197-39.047-62.856-94.929-65.67c-22.29-1.11-44.544-3.023-66.758-4.934
		C485.5,11.727,348.738-0.343,211.287,4.89C168.893,6.506,126.09,14.946,85.121,25.161C46.917,34.684,19.045,58.645,15.512,94.38
		C8.4,166.229,1.015,238.333,0.665,310.343c-0.295,59.986,21.926,78.348,91.229,84.451c114.131,10.062,228.553,17.566,342.86,26.162
		c0.159-3.191,35.625,6.535,155.941-10.49c49.917-7.059,100.086-15.035,149.702-24.48c20.062-3.824,32.171-16.182,35.11-34.977
		c7.035-44.873,19.408-89.512,21.329-134.506C798.569,175.812,793.437,134.032,783.829,94.065z M237.674,140.302
		c2.812-7.025,13.021-5.92,17.189-0.906c1.721,2.186,3.982,7.374,0.897,10.855C248.888,156.106,234.479,152.801,237.674,140.302z
		 M182.434,276.953c-11.605,9.485-24.676,12.577-39.906,12.778c-4.095,0.041-9.747-0.955-14.696-1.964
		c-4.259-0.863-8.482-2.005-14.646-6.365c-6.026-4.271-5.524-1.638-9.066,2.066c-4.648,4.852-10.656,9.298-17.651,10.376
		c-18.161,2.743-15.166-12.901-4.893-20.444c6.148-4.5,9.925-6.07,13.065-12.732c3.206-6.797,3.899-13.188,5.621-20.805
		c2.044-9.039,5.245-41.557-6.388-40.577c-20.47,1.716-0.41-8.651,2-10.504c5.735-4.456,3.708-20.111,4.266-27.132
		c1.423-17.979,3.236-35.938,5.194-53.88c0.704-6.477-0.662-16.211,5.196-20.352c6.291-4.475,14.235-6.434,21.941-7.254
		c26.516-2.845,60.042,6.856,68.781,33.805c9.021,27.831-22.506,63.404-48.876,72.84c4.428,4.868,9.742,2.799,23.182,9.172
		c7.341,4.652,11.313,7.03,16.217,13.76c7.084,9.711,12.764,19.038,11.002,32.465c-1.013,7.601-1.676,12.696-5.085,17.676
		C193.409,266.16,188.415,272.05,182.434,276.953z M352.825,309.104c-0.551,28.794-16.209,49.55-34.915,53.747
		c-16.042,1.938-29.896-6.248-37.972-16.967c-9.802,5.562-24.382,0.5-27.475-8.076c7.713-7.412,15.71,7.484,24.24,0
		c-4.285-23.646,5.394-40.932,25.859-44.438c17.817,11.254,2.38,39.316-9.699,46.854c12.348,8.459,32.646,2.203,37.975-6.457
		c12.667-20.264,13.189-50.551,7.272-78.373c-5.701,5.061-7.504,7.756-12.005,12.268c-5.174,3.989-8.089,8.584-13.813,12.014
		c-3.461,2.447-7.808,3.601-11.346,1.566c-4.465-2.107-8.72-4.432-12.5-7.223c-2.506,4.873-7.686,9.436-17.305,13.652
		c-11.87,3.221-16.955,0.25-25.329-6.332c-4.146-3.975-5.616-9.11-12.655-11.745c-6.949,6.62-10.475,16.642-20.8,19.89
		c-8.471,0.637-14.853-0.82-13.559-9.949c-0.143-5.174-0.143-5.599,9.046,0c23.443-1.371,28.141-42.369,27.121-73.231
		c-4.88-6.573-17.816-5.081-23.513-10.848c-11.067-16.064,8.782-27.174,26.222-20.793c7.595,3.898,12.263,9.411,12.659,15.369
		c-1.628,26.604-5.349,55.957,0,80.468c3.424,7.25,9.777,8.522,15.369,7.231c6.65-2.373,10.522-12.909,13.553-20.042
		c0.33-1.523,0.876-3.072,1.493-4.72c9.042-22.595,25.468-47.573,60.599-37.976c3.077,1.021,4.575,3.119,4.844,5.653
		c-1.873,28.83,5.214,48.729,7.276,77.562C352.845,301.642,353.432,305.194,352.825,309.104z M520.641,142.89
		c-0.688,0.888-1.825,1.164-2.715,1.759c-1.125,0.761-2.611,1.239-3.916,1.649c-3.1,0.985-5.824,1.973-9.033,2.512
		c-3.852,0.648-7.768,1.506-11.764,1.943c-1.598,0.17-3.436-0.267-2.577,1.606c0.728,1.605,1.876,3.733,2.906,5.479
		c19.938,34.087,27.224,70.615,14.03,108.603c-5.042,14.514-16.692,22.715-30.342,28.525c-1.737,0.738-3.492,1.377-5.233,1.877
		c-3.794,1.076-7.349,1.925-11.358,2.408c-4.603,0.556-9.362,0.586-13.999,0.681c-2.884,0.06-5.74-0.354-8.582-0.79
		c-1.378-0.217-2.761-0.434-4.139-0.657c-1.082-0.181-2.398-0.644-3.494-0.552c-1.505,0.126-3.488-0.846-5.015-1.189
		c-2.435-0.552-4.547-1.393-6.849-2.338c-0.226-0.092-0.867-0.433-1.047-0.441c-0.346-0.021-0.377-0.504-0.832-0.551
		c-0.94-0.098-1.466-0.939-2.087-1.432c-0.288-0.236-0.805-0.175-1.247-0.438c-0.019-0.015-0.474-0.443-0.461-0.416
		c-0.234-0.455-0.614-0.25-0.993-0.469c-1.446-0.83-2.923-1.93-4.376-2.863c-0.24-0.156-0.844-0.356-0.943-0.666
		c-0.022-0.08-1.274-0.881-1.354-0.868c-0.197,0.034-0.993-0.697-1.243-0.89c-0.582-0.434-0.901-0.709-1.365-1.177
		c-0.446-0.456-1.182-0.538-1.448-1.252c-0.166-0.452-0.288,0.009-0.524-0.214c-0.412-0.383-0.621-0.941-1.033-1.318
		c-0.141,0.004-0.284,0.004-0.424,0c-0.202-0.258-0.424-0.506-0.652-0.736c-0.425-0.42-0.876-0.811-1.3-1.232
		c-0.346-0.332-0.893-0.656-1.067-1.124c-0.167-0.446-0.285,0.009-0.517-0.209c-1.799-1.687-3.572-3.771-5.194-5.655
		c-0.595-0.695-1.085-1.33-1.593-2.063c-0.194-0.29-0.398-0.628-0.727-0.763c-0.412-0.17-0.013-0.276-0.197-0.547
		c-0.726-1.09-1.309-1.826-1.876-2.862c-1.699-3.183-2.779-6.704-3.992-10.052c-1.869-5.145-3.305-10.168-3.663-15.69
		c-0.206-3.093-0.552-6.083-0.442-9.204c0.097-2.809,0.132-5.627,0.267-8.432c0.101-2.07-0.092-5.182,0.845-6.973
		c0.28-0.529,0.253-1.479,0.389-2.093c0.17-0.726,0.486-1.237,0.858-1.837c0.402-0.635,0.328-1.632,0.739-2.325
		c0.123-0.184,0.425-0.796,0.412-0.893c-0.061-0.434,0.665-1.08,0.849-1.667c0.859-2.688,2.298-5.26,3.738-7.566
		c0.766-1.199,1.741-2.394,2.502-3.523c0.224-0.328,0.946-1.422,1.234-1.588c0.447-0.262,0.354-1.09,1.068-1.392
		c0.245-0.101,0.306-0.674,0.547-0.936c0.372-0.399,0.761-0.77,1.151-1.16c0.529-0.543,1.4-2.245,2.166-2.328
		c0.959-0.105,1.212-0.814,1.79-1.624c0.556-0.766,1.506-1.125,2.149-1.877c0.394-0.464,0.625-0.153,0.94-0.647
		c0.188-0.281,0.438-0.854,0.836-0.774c0.174,0.03,1.339-0.99,1.449-1.227c0.209-0.441,1.408-0.923,1.877-1.204
		c0.88-0.534,1.851-0.966,2.708-1.544c1.492-0.985,3.415-1.769,5.13-2.386c1.188-0.424,2.4-0.788,3.619-1.133
		c1.011-0.289,2.292-0.822,3.336-0.885c11.652-0.669,16.536-2.144,24.519,8.876c4.675,6.455,11.196,19.724,4.608,27.085
		c-4.137,4.62-19.672,11.022-20.229,0.28c-0.227-4.395,6.026-7.821,6.308-12.574c0.263-4.577-2.588-13.046-7.452-13.553
		c-17.555-1.829-22.11,19.054-23.523,32.034c-1.542,14.189,1.383,27.803,11.544,38.741c13.042,14.035,41.727,19.916,56.328,5.378
		c12.752-12.705,11.287-37.09,9.951-53.427c-0.786-9.633-2.062-19.211-2.478-28.87c-0.084-1.484-0.853-3.164-1.15-4.635
		c-0.319-1.575-1.111-3.397-1.642-4.915c-0.64-1.812-1.054-3.676-1.622-5.448c-0.373-1.173-1.152-2.613-0.994-3.956
		c0.052-0.469-0.469-1.44-0.557-1.961c-0.101-0.586-0.473-1.519-0.499-1.991c-0.048-1.107-0.568-2.253-0.615-3.304
		c-0.041-0.666-0.062-1.335-0.216-1.982c-0.529-0.328-1.138-0.438-1.741-0.451c-1.257-0.031-2.495-0.031-3.746-0.123
		c-5.479-0.402-11.266-0.56-16.621-1.908c-8.542-2.149-27.971-6.539-27.542-19.046c0.088-2.569,1.146-5.834,4.753-4.713
		c2.612,0.809,5.104,6.149,7.447,8.092c3.698,3.072,7.642,5.361,12.167,7.02c9.103,3.33,13.6,4.267,23.214,4.696
		c0.652,0.026,1.195,0.32,1.483-0.416c0.2-0.503,0.227-1.063,0.218-1.602c-0.042-2.127,0.207-4.483,0.24-6.618
		c0.27-17.73,3.883-32.197,12.819-45.804c10.861-16.533,36.713-21.281,51.01-5.146c2.075,2.346,4.377,5.278,5.017,8.373
		c0.352,1.662,1.023,3.299,1.487,5.011c0.354,1.321,0.604,2.726,0.665,4.105c0.049,1.041,0.364,2.165,0.376,3.159
		c0.062,4.875-0.954,10.262-2.082,14.98c-0.489,2.053-1.305,3.973-2.241,5.86c-0.229,0.485-0.728,1.513-1.104,1.85
		c-0.389,0.355-0.323,1.121-0.835,1.554c-0.446,0.381-0.324,1.108-0.801,1.47c-0.325,0.25-0.701,0.477-0.938,0.824
		c-0.396,0.577-0.675,1.128-1.178,1.663c-0.627,0.666-1.438,1.042-2.084,1.768c-0.738,0.826-1.403,1.352-2.278,1.965
		c-1.052,0.726-1.36,0.988-2.456,1.816c-1.031,0.779-1.52,1.672-2.753,2.148c-0.188,0.07-0.723,0.07-0.832,0.218
		C521.922,142.544,521.532,142.496,520.641,142.89z M705.564,282.919c-11.38,5.692-27.099,4.651-32.707-5.557
		c-0.918-3.744-1.719-7.57-3.493-10.441c-11.651,8.99-20.781,20.52-38.268,23.66c-10.737,0.305-17.75-1.654-22.973-8.355
		c-4.818-5.032-6.646-10.831-6.775-17.02c-3.955,7.192-6.721,13.234-6.721,13.234c-6.453,9.788-16.295,16.146-30.879,15.395
		c-14.744-0.09-29.568-10.306-34.102-21.265c-1.657-5.183-2.673-6.94-4.062-14.737c-3.141-18.16-3.45-25.735-2.311-39.24
		c3.073-1.711,5.277,0.459,7.697,1.545c7.231-9.761,26.602-24.814,46.187-20.162c5.136,1.224,8.111,5.717,11.597,10.004
		c8.086,11.307,3.868,38.875-20.011,40.764c-9.396,0.241-19.6-0.898-26.968-4.611c-3.917,21.123,9.072,35.341,29.663,36.925
		c0,0,18.916-0.341,33.697-38.336c0.001-0.003,0.001-0.005,0.002-0.007c0.295-0.948,0.597-1.896,0.9-2.842
		c5.552-17.316,28.898-37.669,48.019-38.974c6.911-0.472,12.258-1.512,21.576,3.478c8.116,4.698,15.795,11.468,15.302,21.57
		c-3.356,1.762-5.789,0.955-8.32-0.578c3.142,12.95-10.661,26.756-4.899,42.34c1.968,7.463,14.801,11.16,21.575,5.563
		c-4.729-10.582-8.476-28.746,9.811-26.97c12.691,4.191,10.449,21.203,3.415,29.748c4.288,4.787,15.489-0.727,22.146,1.67
		C729.604,287.976,710.15,288.571,705.564,282.919z"/>
	<path fill="#000000" d="M706.262,269.708c4.603-3.33,4.229-10.207,3.471-17.403C700.006,251.246,700.445,266.521,706.262,269.708z"
		/>
	<path fill="#000000" d="M577.938,209.207c-20.243-5.108-30.565,10.943-35.373,26.149
		C559.019,251.561,591.387,234.123,577.938,209.207z"/>
</g>
</svg>
