<svg data-name="Layer 1" xmlns="http://www.w3.org/2000/svg" viewBox="0 0 144 108"><title>airplane</title><path d="M70 68.26c8.57-1.56 16.84-3.67 20.24-8.34h-3.39a1 1 0 1 1 0-2.08h8.33a1 1 0 1 1 0 2.08h-2.49c-3.47 6.45-13.3 8.75-22.32 10.39h-.19a1 1 0 0 1-.18-2.05"/><path d="M33.75 62a1 1 0 0 0 1 1h1v6.25a1 1 0 1 0 2.08 0V63H40v2.08a5.09 5.09 0 0 0 5.2 5.2H53l1.59 16.76a1 1 0 0 0 .09.33 2.88 2.88 0 0 0 2.48 1.65H65A2.08 2.08 0 0 0 67.07 87V65.12a1 1 0 0 0-1-1H57.7a1 1 0 0 0 0 2.08H65V87h-7.85a.82.82 0 0 1-.51-.32L54.57 65a1 1 0 0 0-2.07.2l.29 3h-7.58a3 3 0 0 1-3.12-3.12v-6.21a3.08 3.08 0 0 1 3-3.11 48.33 48.33 0 0 0 13.87 2.07c6.21 0 8.68-1.33 9.58-2.08h16.23a1 1 0 0 0 .85-.44l5.15-7.22a1.5 1.5 0 0 1 1.29-.68v7.29a1 1 0 0 0 2.08 0v-7.28a2.11 2.11 0 0 0-2.08-2.08 3.5 3.5 0 0 0-2.82 1.35l-.11.13-4.89 6.85h-15.4c-.75-1.84-3.24-6.25-9.89-6.25-7.17 0-12.93 5.07-14.21 6.29A5.13 5.13 0 0 0 40 58.87V61h-2.08v-6.29a1 1 0 1 0-2.08 0V61h-1a1 1 0 0 0-1 1m13.56-7.76c2.14-1.73 6.57-4.73 11.64-4.73 5.42 0 7.37 3.44 7.95 4.86-.78.47-3 1.39-7.95 1.39a43.69 43.69 0 0 1-4.71-.27l-.82-1.63a1 1 0 1 0-1.86.93l.18.37a47.13 47.13 0 0 1-4.43-.92"/><path d="M45.21 66.16a1 1 0 1 1 0-2.08h4.16a1 1 0 1 1 0 2.08h-4.16zM66 47.42a1 1 0 0 1-1-1v-5.25h-5.22a.83.83 0 0 0-.53.38l-.53 2.92a1 1 0 1 1-2-.37l.51-3.1a1.1 1.1 0 0 1 .07-.23 2.87 2.87 0 0 1 2.48-1.72H65a2.11 2.11 0 0 1 2.08 2.13v5.15a1 1 0 0 1-1 1M27.28 43.73a2.64 2.64 0 1 1 2.64-2.64 2.65 2.65 0 0 1-2.64 2.64m0-3.63a1 1 0 1 0 1 1 1 1 0 0 0-1-1M80.93 29.83a.82.82 0 0 1-.62-.28L74 22.44a.82.82 0 0 1 .44-1.35l9.5-2.09a.83.83 0 0 1 1 1.07l-3.19 9.25a.83.83 0 0 1-.62.54h-.16m-4.81-7.45l4.48 5 2.25-6.52zM102.21 35.17a3.28 3.28 0 0 1 1.57-2.06 4.21 4.21 0 0 1 3.44-.24c1.45.53 2.24 2.06 2.36 4.56a18.62 18.62 0 0 0 8.37-4.68.82.82 0 0 1 1.19 1.15 19.68 19.68 0 0 1-9.57 5.23 10.74 10.74 0 0 1-5.29 7.5.83.83 0 1 1-.77-1.46 9 9 0 0 0 4.34-5.85 11.94 11.94 0 0 1-2.69-.19 4.3 4.3 0 0 1-2.59-1.53 2.75 2.75 0 0 1-.42-2.11c0-.11 0-.21.07-.32m5.74 2.48c-.06-1.8-.51-2.95-1.29-3.23a2.56 2.56 0 0 0-2.06.12 1.7 1.7 0 0 0-.83 1.24 1.1 1.1 0 0 0 .15.87 2.69 2.69 0 0 0 1.53.85 10.18 10.18 0 0 0 2.5.15"/></svg>