<svg data-name="Layer 1" xmlns="http://www.w3.org/2000/svg" viewBox="0 0 144 108"><title>balloon</title><path d="M90.42 38.88c0-9.31-6.73-16.88-15-16.88s-15 7.58-15 16.88c0 8.11 5.11 14.91 11.91 16.52l-1.43 3.85a1 1 0 0 0 .94 1.35h2.73a1 1 0 0 0 0 .21c0 1-.79 2-1.63 3.07-1.08 1.37-2.31 2.93-2 4.9.25 1.69 1.55 3.29 4.07 5 3.55 2.46 2.59 4.18 1.13 6.79A9.22 9.22 0 0 0 74.52 85a1 1 0 0 0 2 0 7.71 7.71 0 0 1 1.31-3.41c1.4-2.5 3.31-5.92-1.74-9.41-2-1.37-3.07-2.61-3.23-3.69s.69-2.21 1.61-3.37 2.06-2.61 2.06-4.31a1 1 0 0 0 0-.21H79a1 1 0 0 0 .94-1.35l-1.42-3.85c6.79-1.61 11.9-8.4 11.9-16.52zM73.27 58.6l1-2.83h2.2l1 2.83h-4.3zm2.15-4.83c-7.17 0-13-6.68-13-14.88S68.25 24 75.42 24s13 6.68 13 14.88-5.83 14.89-13 14.89zM44.68 39.72a.83.83 0 0 1-.57-.23l-5-4.72a.83.83 0 0 1 0-1.17l4.72-5a.83.83 0 0 1 1.17 0l5 4.72a.83.83 0 0 1 0 1.17l-4.72 5a.82.82 0 0 1-.6.26m-3.82-5.58l3.79 3.59 3.59-3.79-3.79-3.59zM99.23 36.57a2.64 2.64 0 1 1 2.64-2.64 2.65 2.65 0 0 1-2.64 2.64m0-3.63a1 1 0 1 0 1 1 1 1 0 0 0-1-1M92.21 78.52A.83.83 0 0 1 91.7 77a9.1 9.1 0 0 0 3.19-6.54 11.87 11.87 0 0 1-2.68.31 4.31 4.31 0 0 1-2.82-1 2.75 2.75 0 0 1-.8-2 3.34 3.34 0 0 1 1.17-2.64 4.21 4.21 0 0 1 3.34-.87c1.52.25 2.58 1.62 3.16 4.06a18.52 18.52 0 0 0 7.37-6.14.83.83 0 0 1 1.38.91A19.68 19.68 0 0 1 96.55 70a10.74 10.74 0 0 1-3.83 8.34.83.83 0 0 1-.51.18m.19-12.65a2.49 2.49 0 0 0-1.58.53 2 2 0 0 0-.59 1.53c0 1.34 1.75 1.54 2 1.54a10.25 10.25 0 0 0 2.46-.47c-.39-1.76-1-2.88-1.86-3a2.78 2.78 0 0 0-.43-.11M55.89 65.24a2.64 2.64 0 1 1 2.64-2.64 2.65 2.65 0 0 1-2.64 2.64m0-3.63a1 1 0 1 0 1 1 1 1 0 0 0-1-1"/><path d="M83.7 33.5a7.68 7.68 0 0 0-5.53-5.5 1 1 0 0 0-.6 1.91 5.72 5.72 0 0 1 4.2 4.09 1 1 0 0 0 1 .74 1 1 0 0 0 .26 0 1 1 0 0 0 .71-1.23"/></svg>