<svg data-name="Layer 1" xmlns="http://www.w3.org/2000/svg" viewBox="0 0 60.52 55.27"><title>pattern_confetti</title><path fill="#cf023d" d="M11.2 19.77a2.64 2.64 0 1 1 2.64-2.64 2.65 2.65 0 0 1-2.64 2.64zm0-3.63a1 1 0 1 0 1 1 1 1 0 0 0-1-1zM32.97 46.88a.78.78 0 0 1-.12-.17.82.82 0 0 1 .34-1.11c.06 0 6.51-3.38 13.17 2.93l.06.07c.25.28 6 6.94 12.81 2.22a.83.83 0 1 1 .94 1.36 10 10 0 0 1-10.61.83 15 15 0 0 1-4.37-3.31c-5.76-5.43-11-2.76-11.23-2.65a.83.83 0 0 1-.99-.17zM51.93 24.35a.82.82 0 0 1-.57-.23l-5-4.72a.83.83 0 0 1 0-1.17l4.72-5a.83.83 0 0 1 .58-.26.84.84 0 0 1 .59.23l5 4.72a.83.83 0 0 1 0 1.17l-4.72 5a.82.82 0 0 1-.6.26zm-3.83-5.58l3.79 3.59 3.59-3.79-3.79-3.59zM28.32 16.69a.82.82 0 0 1-.51-1.47A9.1 9.1 0 0 0 31 8.68a11.88 11.88 0 0 1-2.68.31 4.31 4.31 0 0 1-2.82-1 2.75 2.75 0 0 1-.8-2 3.34 3.34 0 0 1 1.17-2.64 4.21 4.21 0 0 1 3.34-.87c1.52.25 2.58 1.62 3.15 4.06A18.52 18.52 0 0 0 39.73.4a.83.83 0 0 1 1.38.91 19.68 19.68 0 0 1-8.45 6.9 10.74 10.74 0 0 1-3.83 8.34.83.83 0 0 1-.51.14zm.19-12.65a2.48 2.48 0 0 0-1.58.53 2 2 0 0 0-.59 1.53c0 1.34 1.75 1.54 2 1.54a10.27 10.27 0 0 0 2.48-.46c-.39-1.76-1-2.88-1.86-3a2.85 2.85 0 0 0-.45-.14zM9.07 55.27a.83.83 0 0 1-.71-.41l-8.24-14a.83.83 0 1 1 1.42-.84l8.24 14a.83.83 0 0 1-.71 1.25zM19.2 40.49a.83.83 0 0 1-.15-.44l-.45-9.77a.83.83 0 0 1 1.22-.76l8.56 4.74a.83.83 0 0 1 0 1.42l-8.11 5a.83.83 0 0 1-.82 0 .82.82 0 0 1-.25-.19zm1.12-8.81l.32 6.89 5.72-3.55z"/></svg>