<svg data-name="Layer 1" xmlns="http://www.w3.org/2000/svg" viewBox="0 0 144 108"><title>controller</title><path d="M63.18 63.63a2.41 2.41 0 0 0 2.4-2.4v-2.41H68A2.4 2.4 0 1 0 68 54h-2.42v-2.4a2.4 2.4 0 1 0-4.81 0V54h-2.4a2.4 2.4 0 1 0 0 4.81h2.4v2.41a2.41 2.41 0 0 0 2.41 2.4m-4.81-6.41a.8.8 0 1 1 0-1.6h3.21a.8.8 0 0 0 .8-.8V51.6a.8.8 0 1 1 1.6 0v3.21a.8.8 0 0 0 .8.8H68a.8.8 0 1 1 0 1.6h-3.22a.8.8 0 0 0-.8.8v3.21a.8.8 0 0 1-1.6 0V58a.8.8 0 0 0-.8-.8h-3.21z"/><path d="M87.22 44.39h-5.61v-7.22a4 4 0 1 0-8 0 2.4 2.4 0 0 1-4.81 0v-9.62a.8.8 0 1 0-1.6 0v9.62a4 4 0 1 0 8 0 2.41 2.41 0 1 1 4.81 0v8a.8.8 0 0 0 .8.8h6.41a10.56 10.56 0 0 1 10.42 10.44v12.87a4.11 4.11 0 0 1-4 4c-2.33 0-3.71-1.51-5.46-3.42-2.52-2.76-5.67-6.2-13-6.2s-10.43 3.43-12.95 6.19c-1.75 1.92-3.13 3.43-5.49 3.43a4.18 4.18 0 0 1-4-4V56.41A10.56 10.56 0 0 1 63.18 46H77.6a.8.8 0 1 0 0-1.6H63.18a12.18 12.18 0 0 0-12 12v12.84a5.76 5.76 0 0 0 5.61 5.61c3.06 0 4.81-1.92 6.67-4 2.43-2.65 5.17-5.66 11.77-5.66s9.37 3 11.8 5.68c1.85 2 3.6 3.94 6.64 3.94a5.74 5.74 0 0 0 5.61-5.57V56.41a12.18 12.18 0 0 0-12-12"/><path d="M92 58.82a2.4 2.4 0 1 0-2.41-2.4 2.41 2.41 0 0 0 2.41 2.4m0-3.21a.8.8 0 1 1-.8.8.8.8 0 0 1 .8-.8M87.22 49.2a2.4 2.4 0 1 0 2.4 2.4 2.41 2.41 0 0 0-2.4-2.4m0 3.21a.8.8 0 1 1 .8-.8.8.8 0 0 1-.8.8M82.41 54a2.4 2.4 0 1 0 2.4 2.4 2.41 2.41 0 0 0-2.4-2.4m0 3.21a.8.8 0 1 1 .8-.8.8.8 0 0 1-.8.8M87.22 63.63a2.4 2.4 0 1 0-2.41-2.4 2.41 2.41 0 0 0 2.41 2.4m0-3.21a.8.8 0 1 1-.8.8.8.8 0 0 1 .8-.8M42.7 52.69a.83.83 0 0 1-.57-.23l-5-4.72a.83.83 0 0 1 0-1.17l4.72-5a.83.83 0 0 1 .58-.26.84.84 0 0 1 .59.22l5 4.72a.82.82 0 0 1 0 1.17l-4.72 5a.83.83 0 0 1-.6.26m-3.83-5.58l3.79 3.59 3.59-3.79-3.79-3.59zM51.17 31.85a2.64 2.64 0 1 1 2.64-2.64 2.65 2.65 0 0 1-2.64 2.64m0-3.63a1 1 0 1 0 1 1 1 1 0 0 0-1-1M94.19 39.72a.83.83 0 0 1-.51-1.47 9.1 9.1 0 0 0 3.19-6.54 11.87 11.87 0 0 1-2.68.31 4.31 4.31 0 0 1-2.82-1 2.75 2.75 0 0 1-.8-2 3.34 3.34 0 0 1 1.17-2.64 4.21 4.21 0 0 1 3.34-.87c1.52.25 2.58 1.62 3.16 4.06a18.52 18.52 0 0 0 7.37-6.14.83.83 0 0 1 1.38.91 19.68 19.68 0 0 1-8.45 6.9 10.74 10.74 0 0 1-3.83 8.34.83.83 0 0 1-.51.18m.19-12.65a2.49 2.49 0 0 0-1.58.53 2 2 0 0 0-.59 1.53c0 1.34 1.75 1.54 2 1.54a10.25 10.25 0 0 0 2.48-.46c-.39-1.76-1-2.88-1.86-3a2.78 2.78 0 0 0-.43-.11M79.91 85a.82.82 0 0 1-.44-.13l-8.25-5.27a.82.82 0 0 1 .08-1.44l8.79-4.28a.83.83 0 0 1 1.18.79l-.53 9.53a.82.82 0 0 1-.82.78m-6.57-6l5.82 3.7.38-6.68z"/></svg>