<svg data-name="Layer 1" xmlns="http://www.w3.org/2000/svg" viewBox="0 0 144 108"><title>crown</title><path d="M92.76 47.61a3.27 3.27 0 0 0-3.26 3.26 3.23 3.23 0 0 0 .61 1.89l-6.17 3.92-1.62-3.51a1 1 0 0 0-1.3-.48l-4.09 1.88a1 1 0 0 0-.35.29l-4.22-6.35a3.26 3.26 0 1 0-2.37 0l-4.22 6.35a.94.94 0 0 0-.35-.29l-4.08-1.88a1 1 0 0 0-1.3.48l-1.66 3.58-6.14-4a3.23 3.23 0 0 0 .62-1.89 3.33 3.33 0 1 0-2.3 3.14l8 12.65a1 1 0 0 0 .83.46H83a1 1 0 0 0 .83-.46l8-12.65a3.26 3.26 0 1 0 1-6.36m-15 8.74l3.19-1.47 1.32 2.86-2.65 1.68-2-3a1 1 0 0 0 .16 0m-6.68-12.28a1.3 1.3 0 1 1-1.3 1.3 1.3 1.3 0 0 1 1.3-1.3M61.4 54.88l3.19 1.47a.69.69 0 0 0 .15 0l-2.09 3.14L60 57.83zm-13.12-4a1.3 1.3 0 1 1 1.3 1.3 1.3 1.3 0 0 1-1.3-1.3m34.16 14.23H59.9l-5.36-8.51 7.87 5.1a1 1 0 0 0 1.35-.28l7.41-11.15 7.34 11a1 1 0 0 0 1.34.29l8-5.08zm10.32-12.94a1.3 1.3 0 1 1 1.3-1.3 1.3 1.3 0 0 1-1.3 1.3M84 70.15a1 1 0 0 1-1 1H59.28a1 1 0 0 1 0-2h23.78a1 1 0 0 1 1 1M47.49 36.7a.82.82 0 0 1-.09-.6l1.6-6.69a.83.83 0 0 1 1-.61l6.68 1.58a.82.82 0 0 1 .51.37.84.84 0 0 1 .1.62l-1.58 6.69a.83.83 0 0 1-1 .61L48 37.09a.83.83 0 0 1-.52-.39m2.91-6.11l-1.2 5.08 5.08 1.2 1.2-5.08zM40.4 58.61a10.55 10.55 0 0 1 3 4.2 14.82 14.82 0 0 1 1.08 5.37c.72 7.88 6.42 9.35 6.67 9.41a.83.83 0 0 1-.38 1.61c-.07 0-7.12-1.78-7.93-10.91a.7.7 0 0 1 0-.09c0-.37.09-9.17-8.13-10.14a.83.83 0 0 1 .19-1.64 10.38 10.38 0 0 1 5.46 2.2M109.12 67.91a3.29 3.29 0 0 1-1.87 1.79 4.21 4.21 0 0 1-3.44-.31c-1.34-.75-1.88-2.39-1.61-4.88a18.61 18.61 0 0 0-9 3.3.82.82 0 0 1-1-1.32 19.68 19.68 0 0 1 10.27-3.65 10.74 10.74 0 0 1 6.41-6.57.83.83 0 0 1 .53 1.56 9 9 0 0 0-5.21 5.09 11.92 11.92 0 0 1 2.63.61 4.3 4.3 0 0 1 2.31 1.92 2.76 2.76 0 0 1 .08 2.16c0 .1-.08.2-.12.3m-5.27-3.36c-.22 1.79 0 3 .76 3.4a2.56 2.56 0 0 0 2.05.2 1.69 1.69 0 0 0 1-1.1 1.09 1.09 0 0 0 0-.89 2.68 2.68 0 0 0-1.37-1.08 10.14 10.14 0 0 0-2.45-.54"/></svg>