<svg data-name="Layer 1" xmlns="http://www.w3.org/2000/svg" viewBox="0 0 144 108"><title>cruiseship</title><path d="M98.17 53.14h-6.92v-4a4.07 4.07 0 0 0-4.35-4h-2.58v-7.43a2.41 2.41 0 0 0-2.37-2.37h-3.17a2.41 2.41 0 0 0-2.37 2.37v7.52h-4v-7.52a2.41 2.41 0 0 0-2.37-2.37h-3.13a2.41 2.41 0 0 0-2.37 2.37v7.52H62c-2.57 0-4.35 1.68-4.35 4v4h-13l.1 1.09c0 .11 1.88 15.68 13.85 15.68h33.74l-.1-1.09a6.22 6.22 0 0 1 1.29-4.15A6.06 6.06 0 0 1 98.17 63a4.95 4.95 0 0 0 0-9.89m-19.78-15.4a.42.42 0 0 1 .4-.39h3.17a.43.43 0 0 1 .4.39v7.52h-4v-7.52zm-11.87 0a.42.42 0 0 1 .4-.39h3.17a.43.43 0 0 1 .4.39v7.52h-4v-7.52zm-6.93 11.47c0-1.38 1.19-2 2.38-2h24.92c1.19 0 2.37.59 2.37 2v4H59.59v-4zm38.58 11.88A7.76 7.76 0 0 0 92 63.43 7.42 7.42 0 0 0 90.26 68H58.6a9.5 9.5 0 0 1-7.1-3h32.82a1 1 0 0 0 0-2H50a16.93 16.93 0 0 1-1-1.88c-.18-.37-.35-.73-.5-1.09h32a1 1 0 0 0 0-2H47.68c-.37-1.17-.59-2.21-.76-3h51.25a3 3 0 1 1 0 5.93"/><path d="M69.48 49.18a1 1 0 1 0 1 1 1.06 1.06 0 0 0-1-1M74.43 49.18a1 1 0 1 0 1 1 1.06 1.06 0 0 0-1-1M79.38 49.18a1 1 0 1 0 1 1 1.06 1.06 0 0 0-1-1M68 29.3a1.14 1.14 0 0 1 .46.67.72.72 0 0 1-.49.49 1.09 1.09 0 0 0-.4 1.39 1.18 1.18 0 0 0 .89.49.74.74 0 0 0 .49-.1 2.69 2.69 0 0 0 1.48-2.18 3 3 0 0 0-1.22-2.34 1 1 0 0 0-.21-.2.72.72 0 0 1-.5-.52 1.31 1.31 0 0 1 .59-.79 1 1 0 1 0-1.19-1.58 3.31 3.31 0 0 0-1.38 2.57A2.46 2.46 0 0 0 68 29.3M79.87 29.3a1.14 1.14 0 0 1 .46.67.72.72 0 0 1-.49.49 1 1 0 0 0-.4 1.39 1.18 1.18 0 0 0 .89.49.89.89 0 0 0 .49-.1 2.69 2.69 0 0 0 1.48-2.18 3 3 0 0 0-1.22-2.34 1 1 0 0 0-.27-.23.72.72 0 0 1-.44-.49 1.31 1.31 0 0 1 .63-.77 1 1 0 1 0-1.19-1.58 3.31 3.31 0 0 0-1.38 2.57 2.46 2.46 0 0 0 1.48 2.08M49.87 36.19a2.64 2.64 0 1 1 2.64-2.64 2.65 2.65 0 0 1-2.64 2.64m0-3.63a1 1 0 1 0 1 1 1 1 0 0 0-1-1M101.2 47a2.64 2.64 0 1 1 2.64-2.64A2.65 2.65 0 0 1 101.2 47m0-3.63a1 1 0 1 0 1 1 1 1 0 0 0-1-1M107.49 66.45a.8.8 0 0 1 .25 0 .83.83 0 0 1 .71.42l4.82 8.51a.83.83 0 0 1-.75 1.23l-9.77-.35a.83.83 0 0 1-.68-1.25l5-8.16a.83.83 0 0 1 .46-.36m3.62 8.42l-3.4-6-3.49 5.76zM31 82.69a.83.83 0 0 1-.19-1.29c.05-.05 5.16-5.21 13.43-1.25h.08c.32.19 7.84 4.76 12.87-1.82a.83.83 0 1 1 1.31 1 10 10 0 0 1-9.84 4.05 15 15 0 0 1-5.17-1.81c-7.14-3.4-11.32.75-11.5.93a.83.83 0 0 1-1 .14"/></svg>