<svg data-name="Layer 1" xmlns="http://www.w3.org/2000/svg" viewBox="0 0 144 108"><title>envelope</title><path d="M76.88 25.46a23.91 23.91 0 0 0 3.48 2.16l.5.25.38-.41a23.89 23.89 0 0 0 2.5-3.24c1.33-2.11 1.87-3.91 1.61-5.36A3.57 3.57 0 0 0 81.21 16 3.36 3.36 0 0 0 79 17.41a3.56 3.56 0 0 0-5.5 3.6c.26 1.45 1.4 2.95 3.39 4.45m2.43-6.14a.75.75 0 0 0 .57-.5 2.07 2.07 0 0 1 4 .29c.19 1.06-.29 2.54-1.4 4.3a22.06 22.06 0 0 1-2 2.6 22.09 22.09 0 0 1-2.74-1.75C76.13 23 75.16 21.79 75 20.74a2.07 2.07 0 0 1 3.64-1.68.75.75 0 0 0 .71.26M69.25 53.76a.82.82 0 0 0-.58.26L64 59a.82.82 0 0 0 0 1.17l5 4.72a.83.83 0 0 0 1.17 0l4.72-5a.82.82 0 0 0 0-1.17l-5-4.72a.84.84 0 0 0-.59-.23m.26 9.37l-3.79-3.58 3.59-3.79 3.79 3.59zM77.78 62.08a2.64 2.64 0 1 0 2.64-2.64 2.64 2.64 0 0 0-2.64 2.64m3.63 0a1 1 0 1 1-1-1 1 1 0 0 1 1 1M81.41 32.88a2.64 2.64 0 1 0 2.64 2.64 2.65 2.65 0 0 0-2.64-2.64m0 3.63a1 1 0 1 1 1-1 1 1 0 0 1-1 1M49 29a2.64 2.64 0 1 0-2.64-2.64A2.65 2.65 0 0 0 49 29m0-3.63a1 1 0 1 1-1 1 1 1 0 0 1 1-1M63.7 39a.82.82 0 0 0 .62.28h.16a.83.83 0 0 0 .62-.54l3.19-9.25a.82.82 0 0 0-1-1.07l-9.55 2.13a.82.82 0 0 0-.44 1.35zm2.54-8.67L64 36.88l-4.49-5zM51 42.42l.06.07c6.4 6.58 13 3.5 13 3.47a.83.83 0 0 0-.72-1.49c-.23.11-5.58 2.56-11.11-3.1A14.83 14.83 0 0 0 48 37.88a10.56 10.56 0 0 0-5-1.34 10.37 10.37 0 0 0-5.62 1.74.82.82 0 1 0 .88 1.39c7-4.43 12.48 2.45 12.71 2.74"/><path d="M101.48 39.91a.82.82 0 0 0-1.14.23A18.52 18.52 0 0 1 93 46.28c-.58-2.44-1.64-3.8-3.15-4.06a4.21 4.21 0 0 0-3.34.87 3.34 3.34 0 0 0-1.17 2.64 2.75 2.75 0 0 0 .8 2 4.31 4.31 0 0 0 2.82 1 11.87 11.87 0 0 0 2.68-.31A9.1 9.1 0 0 1 88.42 55a.83.83 0 0 0 1 1.3 9.38 9.38 0 0 0 1.49-1.47L98 59.44 78.13 72.37l-2.61 1.7-13.2-8.57L54.37 52a.83.83 0 1 0-1.42.84l1.79 3-4.14 2.76a1 1 0 0 0-.45.84v31.64a1 1 0 0 0 0 .13 1 1 0 0 0 0 .21 37.37 37.37 0 0 1 .17.3 1 1 0 0 0 .25.19l.17.09a1 1 0 0 0 .4.09h48.79a1 1 0 0 0 .29-.06h.06a1 1 0 0 0 .26-.19l.06-.06a1 1 0 0 0 .15-.22v-.09a1 1 0 0 0 .07-.35V59.44a1 1 0 0 0-.46-.84L92 53.15A11.44 11.44 0 0 0 93.27 48a19.68 19.68 0 0 0 8.45-6.9.82.82 0 0 0-.23-1.14m-12.56 7.5c-.22 0-2-.19-2-1.54a2 2 0 0 1 .59-1.53 2.49 2.49 0 0 1 1.58-.53 2.78 2.78 0 0 1 .43.11c.82.14 1.47 1.26 1.86 3a10.25 10.25 0 0 1-2.48.46M70.68 73.32L52.15 88.93V61.28zm1.7 1.18L75 76.1l.13.06.12.05h.55a1 1 0 0 0 .26-.12l2.53-1.64 18.55 15.63H53.89zm26.5 14.43L80.35 73.32l18.54-12v27.61zM59.21 63.49l-6.23-4 2.78-1.8zM106.67 16.52a.82.82 0 0 0-1.17 0l-12.45 13.4a.82.82 0 0 0-.08 1 .72.72 0 0 0 .13.15.83.83 0 0 0 1.17 0l12.45-13.36a.83.83 0 0 0 0-1.17"/><path d="M88.7 52.18a1 1 0 0 0-.29-1.38l-12.34-8a1 1 0 0 0-1.09 0L58 53.77a1 1 0 0 0 1.09 1.68l16.42-10.63 11.8 7.66a1 1 0 0 0 1.38-.29"/></svg>