<svg data-name="Layer 1" xmlns="http://www.w3.org/2000/svg" viewBox="0 0 144 108"><title>heart</title><path d="M80.06 39.63a9 9 0 0 0-6.94 3.29 9 9 0 0 0-15.94 5.71c0 3.88 2.32 8.37 6.88 13.35a66.36 66.36 0 0 0 8.43 7.61l.63.47.63-.47A66.3 66.3 0 0 0 82.17 62c4.57-5 6.88-9.47 6.88-13.35a9 9 0 0 0-9-9m.56 20.92a63.92 63.92 0 0 1-7.51 6.87 63.84 63.84 0 0 1-7.51-6.87c-4.14-4.51-6.33-8.63-6.33-11.93a6.89 6.89 0 0 1 12.94-3.35l.92 1.66.88-1.66a6.89 6.89 0 0 1 13 3.33c0 3.29-2.19 7.42-6.33 11.93M95.28 41.4a2.64 2.64 0 1 1 2.64-2.64 2.65 2.65 0 0 1-2.64 2.64m0-3.63a1 1 0 1 0 1 1 1 1 0 0 0-1-1M80.8 72.07a.83.83 0 0 1-.16-.25.83.83 0 0 1 .45-1.08l19.74-8.11a.83.83 0 1 1 .63 1.53l-19.74 8.12a.83.83 0 0 1-.92-.2M51.25 46.58a.83.83 0 0 1-1 0l-7.86-5.83a.83.83 0 0 1 .18-1.43l9.08-3.64a.82.82 0 0 1 1.13.87l-1.22 9.47a.83.83 0 0 1-.28.52m-6.72-6.23l5.54 4.11.86-6.68z"/></svg>