<svg id="cdf-logo" data-name="cdf-logo" xmlns="http://www.w3.org/2000/svg" viewBox="0 0 276 175.69">
	<defs>
		<style>
			.cdf-additional-text {
				fill: #ec0044
			}
			.cdf-sun {
				fill: #ffdb00
			}
			.cdf-main-title {
				fill: #002d73
			}
	</style>
	</defs>
	<title>CDF full color logo</title>
	<path class="cdf-additional-text" d="M7.82 90.15a7.22 7.22 0 0 0 5.64-2.4L11 85.45a3.71 3.71 0 0 1-3.08 1.48c-2.42 0-4.12-1.81-4.12-4.45A4.18 4.18 0 0 1 8 78a3.62 3.62 0 0 1 2.93 1.33L13.31 77a7.41 7.41 0 0 0-5.44-2.13c-4.43 0-7.88 3-7.88 7.63a7.46 7.46 0 0 0 7.82 7.67M18.46 83.69h5.66v6.07h3.51V75.24h-3.51v5.49h-5.66v-5.49h-3.51v14.52h3.51v-6.07zM30.62 75.24h3.53v14.53h-3.53zM46.3 86.7h-5.62V75.24h-3.53v14.52h9.15V86.7zM61.5 82.46c0-5.5-4.19-7.22-8.31-7.22h-5.25v14.52h5.42c4 0 8.14-2.19 8.14-7.3M53 86.73h-1.64v-8.5h1.74c2.42 0 4.74 1 4.74 4.23s-2.31 4.27-4.84 4.27M67.26 84h1.19l3.14 5.76h4.1l-3.79-6.22a4 4 0 0 0 3-3.92c0-3.32-2.77-4.39-5.56-4.39h-5.53v14.53h3.45V84zm0-5.93h1.84c1 0 2.34.27 2.34 1.62S70 81.45 68.9 81.45h-1.66v-3.38zM87.55 86.77H80.8v-3.02h6.03v-2.81H80.8v-2.73h6.38v-2.97h-9.77v14.52h10.14v-2.99zM93.19 80.26h.06l5.84 9.5h3.98V75.24h-3.4l.08 9.48h-.06l-5.83-9.48h-4v14.52h3.41l-.08-9.5zM109.86 75.24h-2.97l-1.48 5.56h2.58l1.87-5.56zM116.47 87.24a4.3 4.3 0 0 1-3.14-1.54L111 88a7.67 7.67 0 0 0 5.44 2.09c2.87 0 5.56-1.5 5.56-4.84 0-2.89-2.54-3.73-4.51-4.37-1.37-.43-2.24-.74-2.24-1.7 0-1.15 1.13-1.46 2-1.46a3.52 3.52 0 0 1 2.64 1.28l2.24-2.36a7.26 7.26 0 0 0-4.76-1.78c-2.71 0-5.62 1.33-5.62 4.55 0 2.63 1.87 3.57 3.71 4.17s3 1 3 2.07-.94 1.58-2 1.58M145.06 175.3h3.46v-5.64h5.63v-2.89h-5.63v-3h6.1v-2.99h-9.56v14.52zM165.67 169.54c0 1.56-.74 3-2.73 3s-2.73-1.44-2.73-3v-8.76h-3.49v9c0 3.49 2.38 5.87 6.2 5.87s6.26-2.38 6.26-5.87v-9h-3.51v8.76zM181.9 170.26h-.06l-5.83-9.48h-4v14.52h3.4l-.08-9.49h.06l5.85 9.49h3.98v-14.52h-3.4l.08 9.48zM193.47 160.78h-5.25v14.52h5.42c4 0 8.14-2.19 8.14-7.3 0-5.5-4.18-7.22-8.31-7.22m-.16 11.49h-1.66v-8.49h1.74c2.42 0 4.74 1 4.74 4.23s-2.32 4.27-4.82 4.27"/>
	<path class="cdf-sun" d="M236.32 90.68l.07-.38v-.53l.07-.73.13-1.45c.07-1 .22-1.87.22-2.92a47.94 47.94 0 0 0-.21-6.13l-.32-2.92c-.17-1-.41-1.89-.61-2.82a42.45 42.45 0 0 0-1.59-5.37 18 18 0 0 0-1-2.51L232 62.5A46.37 46.37 0 0 0 220 48c-1.12-.83-2.19-1.65-3.25-2.39l-3.18-2c-1-.62-2.09-1.06-3.05-1.56l-1.42-.72-1.41-.56-2.6-1c-.82-.29-1.63-.47-2.35-.7l-2-.6c-.62-.18-1.2-.25-1.71-.37l-3.15-.63-3.17-.35c-.52 0-1.09-.15-1.73-.17h-2.11c-.76 0-1.59-.07-2.46 0l-2.78.18-1.51.1-1.57.26c-1.07.18-2.22.27-3.38.55l-3.62.89c-1.23.38-2.49.84-3.82 1.28a44.76 44.76 0 0 0-15.8 10.13 43.46 43.46 0 0 0-11.08 19.5c-.28 1-.4 2-.61 3l-.28 1.51-.14.76v.85a46.07 46.07 0 0 0-.2 6.08 44.82 44.82 0 0 0 2.16 12.6 47.54 47.54 0 0 0 3.75 8.68c.23-1.67.5-3.37.87-5.18a5.37 5.37 0 0 1 5.3-4.34c2.67-.51 8.13-1.12 11.09 1.43a13.93 13.93 0 0 1 5.76-1.07 10.1 10.1 0 0 1 5.73 1.84 14 14 0 0 1 4.57-3.44c5.65-2.62 14.69-1 17.9 4.95 3 5.55 4.28 17.15 4.87 30.15a43.78 43.78 0 0 0 5.07-1.8 50.84 50.84 0 0 0 11.63-7.24 49.27 49.27 0 0 0 8.93-10 44.53 44.53 0 0 0 5.57-11.78 45.59 45.59 0 0 0 1.51-6.15M247.2 88.31s20.17 17.49 27.52 6.63-19.17-17.69-27.52-6.63M262.34 39.26c.63-7.58-3.44-12.66-6.65-11.33S239 37.52 237.84 49c0 0 23.87-2.19 24.5-9.78M231.9 122.59s1.93 10.82 6.37 15.2c2.63 2.6 7.72 1.57 9.51-1.58 4.82-8.46-15.88-13.62-15.88-13.62M138.3 49.19c-6.45-18.06-15.19-11.26-13.7-4.69s13.7 4.69 13.7 4.69M215.32 1.33C203.66-5 202 12.93 205 23.35c0 0 22-15.66 10.34-22M168.22 25.48S170.68 4 161.43 6.85s-3.18 16.29 6.79 18.63"/>
	<path class="cdf-main-title" d="M194.5 99.81c-1.87-3.49-8-4.53-11.62-2.85-3.18 1.47-5.26 4.93-6.6 9-.46-3.66-2.1-7-6-7.11a10.48 10.48 0 0 0-8.46 4.38c0-1.62.34-3.13-.15-4.24-.65-1.47-7-.82-7.92-.47a.58.58 0 0 0-.75.48c-1.68 8.14-1.53 14.53-2.33 22.8-.86 8.83-2 19.14-2.3 28a1.33 1.33 0 0 0 1.33 1.33c2.6-.22 6 .66 8.36-.74.65-.39.72-1.83.74-2 .86-8.19 2.16-23.57 4.11-31.34 1.42-5.69 3.53-8.07 5.85-7.76S171 115 171 116.56c0 2.35-.55 13.22-.35 15.58a1.29 1.29 0 0 0 1.29 1.29 56.67 56.67 0 0 1 6-.58 1.25 1.25 0 0 0 1.25-1.45.6.6 0 0 0 .09-.21c.65-3.36 1.69-15.31 2.6-18.62.37-1.34 1.24-6 3.18-5.67 2.48.47 2.57 4.82 2.59 7.59 0 5.22.65 28.89.72 34.64a2 2 0 0 0 2.41 2.05 60.13 60.13 0 0 0 6.84-.83 2.06 2.06 0 0 0 1.64-2.15c-.12-9.17-.07-39.67-4.77-48.42M33.21 124c-.27-10.35-6.07-23.17-16.28-26.73C12.12 95.53 4.5 96 2.42 96.69a1.65 1.65 0 0 0-1.07 1.74c.22 7.29.11 17.85.44 26.48.35 9 .36 16.07 1.06 25.08a1.25 1.25 0 0 0 .84 1.22c2.15.58 14.48 2.3 23-6.27 5.22-5.22 6.68-13.68 6.49-20.94m-20.92-19.11a9.09 9.09 0 0 1 6.74 3.79 27.74 27.74 0 0 1 4.61 11.73c1.06 8.12-.21 16.74-10.15 20-.37-9.87-.92-26.1-1.23-35.53M140.73 103.33a.89.89 0 0 0-.27-.57 1.32 1.32 0 0 0-.53-.83c-.73-.51-2.08-.43-2.93-.53a8.51 8.51 0 0 0-3.25.09 4.41 4.41 0 0 0-2.33 1.68c-6.08-4.71-12.67-.66-16.43 3.34-5.79 6.15-8.93 13.88-9.94 22.48-.78 6.58-1 17.61 6.09 20.49 3.94 1.6 8.51-1.17 11.56-3.55 3.91-3.06 6.92-7.75 8.92-12.62.27 4.38.65 8.73 1 13.89a6.15 6.15 0 0 0 1 3.72c1.37 1.64 7-.64 8.8-.79a1.4 1.4 0 0 0 1.06-1.32c.13-2.57-1.93-37.71-2.75-45.46m-11.5 6.65c-.38 6.52-2.22 11.7-4.56 17.74-1.21 3.13-4.81 11.79-8.51 11.87-3.41.07-1.95-9-1.57-10.88 1.2-6.09 6.72-24.49 14.65-18.73M74.07 149.82c-4.3-9.69-8.89-21.14-14.6-30.32 5.07-2.16 9.23-6 9.46-11.51.42-9.81-12.89-11-19.75-6.94 0 0-.11-1.28-.09-2.3a1.29 1.29 0 0 0-1.23-1.32c-2.75-.08-6-.39-8.63.39a1.6 1.6 0 0 0-1.15 1.68c.08 7.17-.23 17.55 0 26 .19 8.89-.56 16.38 0 25.25a1.24 1.24 0 0 0 .82 1.25 22.63 22.63 0 0 0 8.81.51 1.21 1.21 0 0 0 .61-.24 1.14 1.14 0 0 0 1-1.11c-.22-7.93-.07-27.33-.12-29.62h1.34c1.84 5.51 3.55 8.83 5.13 13 2.16 5.67 5.52 12.73 8 18.29a1.54 1.54 0 0 0 1.55.71 43.83 43.83 0 0 0 8-1.82 1.3 1.3 0 0 0 .89-1.85M49 106.31c3-.87 6.12-3 9.22-2a3 3 0 0 1 1.82 3.76c-.57 2.43-2.76 4.93-11.04 5.53v-7.29M98.47 105.48c-4.17-9.5-16.36-8.35-21.62-.85-5.72 8.16-4.56 20.79-2.46 29.94 2.65 11.57 11.74 19.09 23.35 15.28a2.51 2.51 0 0 0 1.63-2.11 35.12 35.12 0 0 0-.32-5.82c-.24-1.62-3.46-.15-6-.43-9.42-1.06-7.92-7.1-9.07-11.53 5.66-1.47 9.23-2.85 13.08-8.4a17.43 17.43 0 0 0 1.42-16.08m-6.37 9.11c-1.68 4.87-5.35 6.38-9.75 7.91-.4-8.09.46-17.89 7.31-17.21 2.91.29 3.38 6.56 2.44 9.29"/>
</svg>
