<?xml version="1.0" encoding="UTF-8"?>
<svg width="1200px" height="1229px" viewBox="0 0 1200 1229" version="1.1" xmlns="http://www.w3.org/2000/svg" xmlns:xlink="http://www.w3.org/1999/xlink">
    <!-- Generator: Sketch 48.2 (47327) - http://www.bohemiancoding.com/sketch -->
    <title>dream_circle_static</title>
    <desc>Created with Sketch.</desc>
    <defs></defs>
    <g id="Page-1" stroke="none" stroke-width="1" fill="none" fill-rule="evenodd">
        <g id="dream_circle_static">
            <path d="M989.432,1088.302 C742.671,1305.779 379.378,1261.454 165.652,1010.356 C-48.073,759.258 -67.042,354.495 179.728,137.016 C426.5,-80.462 846.688,-29.296 1060.4,221.802 C1274.114,472.9 1236.194,870.823 989.432,1088.302 Z" id="circle" fill="#FFDB00" fill-rule="nonzero"></path>
            <path d="M160.04,368.838 L138.764,322.894 L123.517,322.894 L114.196,398.439 L133.06,398.439 L137.785,357.76 L153.139,389.668 L166.959,389.668 L182.204,357.76 L186.809,398.439 L205.674,398.439 L196.462,322.894 L180.99,322.894 L160.04,368.838 Z M270.499,398.443 L289.911,398.443 L262.161,322.898 L242.201,322.898 L214.345,398.443 L233.976,398.443 L240.338,381.118 L264.137,381.118 L270.499,398.443 Z M252.073,340.44 L259.421,365.329 L245.273,365.329 L252.073,340.439 L252.073,340.44 Z M330.501,360.179 L358.907,322.899 L335.985,322.899 L320.96,344.499 L320.96,322.898 L302.644,322.898 L302.644,398.443 L320.96,398.443 L320.96,375.418 L340.695,398.443 L365.811,398.443 L330.501,360.179 Z M427.575,398.445 L427.575,382.436 L395.883,382.436 L395.883,369.065 L422.863,369.065 L422.863,353.372 L395.883,353.372 L395.883,338.9 L426.592,338.9 L426.592,322.893 L377.562,322.893 L377.562,398.438 L427.575,398.438 L427.575,398.446 L427.575,398.445 Z M521.358,398.445 L540.772,398.445 L513.023,322.9 L493.063,322.9 L465.205,398.445 L484.838,398.445 L491.198,381.12 L514.998,381.12 L521.358,398.445 Z M502.933,340.44 L510.281,365.329 L496.134,365.329 L502.933,340.439 L502.933,340.44 Z M633.023,371.58 C628.222759,379.354253 618.852449,383.007148 610.057,380.533 C601.261152,378.056508 595.169209,370.053719 595.124,360.916 C595.076823,351.778254 601.087592,343.714262 609.858,341.149 C618.628561,338.586043 628.035801,342.144767 632.914,349.871 C632.914,349.871 649.474,338.248 648.158,339.233 C638.738,324.913 621.05,318.463 604.628,323.361 C588.206,328.258 576.935,343.345 576.892,360.487 C576.848,377.629 588.042,392.773 604.438,397.755 C620.834,402.736 638.556,396.377 648.048,382.105 L633.023,371.58 Z M706.078,352.72 L683.046,352.72 L683.046,322.898 L664.73,322.898 L664.73,398.443 L683.046,398.443 L683.046,369.065 L706.078,369.065 L706.078,398.45 L724.722,398.45 L724.722,322.898 L706.078,322.898 L706.078,352.72 Z M747.108,398.443 L765.424,398.443 L765.424,322.898 L747.108,322.898 L747.108,398.443 Z M833.538,398.443 L833.538,382.434 L806.338,382.434 L806.338,322.898 L787.803,322.898 L787.803,398.443 L833.541,398.443 L833.537,398.443 L833.538,398.443 Z M868.531,339.233 L880.048,339.233 C890.685,339.233 896.06,349.651 896.06,360.835 C896.06,371.909 890.685,382.105 880.048,382.105 L868.531,382.105 L868.531,339.233 Z M850.107,398.443 L880.048,398.443 C901.872,398.443 914.376,382.215 914.376,360.835 C914.376,339.343 901.872,322.898 880.048,322.898 L850.107,322.898 L850.107,398.443 Z M935.444,352.062 C944.00763,344.747974 948.937859,334.049915 948.935001,322.788 L935.327,322.788 C935.327,333.643 933.352,340.768 928.307,347.678 L935.444,352.062 Z M962.537,375.966 C962.537,390.22 973.499,399.43 990.396,399.43 C1003.117,399.43 1018.368,393.07 1018.368,376.405 C1018.368,371.031 1017.272,359.519 997.419,353.378 L988.755,350.638 C982.175,348.664 981.735,345.923 981.735,344.498 C981.735,340.878 984.807,338.466 989.742,338.466 C995.336,338.466 997.638,341.426 997.638,345.484 L1015.954,345.484 C1015.954,330.572 1004.877,321.911 989.961,321.911 C974.826,321.911 963.53,331.231 963.53,345.045 C963.53,351.952 966.382,362.699 983.273,367.303 L992.155,370.263 C999.715,372.786 999.715,375.308 999.715,376.514 C999.715,381.228 995.11,383.321 990.394,383.321 C984.032,383.321 981.29,380.031 981.071,375.975 L962.535,375.975 L962.537,375.966 Z M293.145,790.264 C288.345162,798.037552 278.975636,801.690051 270.181,799.216 C261.385859,796.739928 255.294301,788.737924 255.249,779.601 C255.201916,770.46405 261.212299,762.400843 269.982,759.836 C278.750987,757.273254 288.156748,760.830658 293.035,768.555 C293.035,768.555 309.597,756.933 308.28,757.92 C298.86,743.601 281.172,737.152 264.752,742.05 C248.332,746.947 237.061,762.032 237.017,779.173 C236.973,796.314 248.167,811.458 264.561,816.439 C280.957,821.42 298.678,815.062 308.171,800.791 L293.145,790.264 Z M320.575,779.41 C320.713,800.686 338.048,817.831 359.317,817.728 C380.586,817.624 397.753,800.311 397.685,779.034 C397.617,757.758 380.339,740.554 359.07,740.588 C348.817892,740.629193 339.002343,744.742688 331.784,752.023 C324.564149,759.304734 320.531918,769.155824 320.574,779.41 L320.575,779.41 Z M339.109,779.41 C339.223,768.333 348.282,759.441 359.355,759.537 C370.427,759.634 379.33,768.682 379.252,779.758 C379.172,790.835 370.142,799.756 359.07,799.695 C353.727959,799.670419 348.616606,797.515012 344.87,793.707 C341.123013,789.898335 339.049847,784.752493 339.11,779.41 L339.109,779.41 Z M456.915,787.524 L435.637,741.58 L420.393,741.58 L411.069,817.125 L429.933,817.125 L434.658,776.447 L450.013,808.354 L463.833,808.354 L479.077,776.447 L483.683,817.125 L502.547,817.125 L493.333,741.58 L477.87,741.58 L456.916,787.524 L456.915,787.524 Z M570.882,817.127 L570.882,801.12 L539.185,801.12 L539.185,787.744 L566.172,787.744 L566.172,772.064 L539.185,772.064 L539.185,757.591 L569.895,757.591 L569.895,741.582 L520.871,741.582 L520.871,817.127 L570.882,817.127 Z M632.753,757.591 L632.753,817.127 L651.067,817.127 L651.067,757.591 L670.591,757.591 L670.591,741.582 L613.233,741.582 L613.233,757.591 L632.757,757.591 L632.753,757.591 Z M705.805,817.127 L705.805,791.91 L707.452,791.91 L723.682,817.128 L744.966,817.128 L726.541,791.036 C738.826,787.968 744.637,777.55 744.637,766.806 C744.637,754.196 736.52,741.587 718.744,741.587 L687.49,741.587 L687.49,817.132 L705.806,817.132 L705.806,817.128 L705.805,817.127 Z M717.869,757.591 C723.902,757.591 726.096,762.304 726.096,766.801 C726.096,771.297 723.902,776.12 717.869,776.12 L705.805,776.12 L705.805,757.59 L717.869,757.59 L717.869,757.591 Z M792.35,818.107 C808.037,818.107 822.182,807.033 822.182,789.599 L822.182,741.575 L803.757,741.575 L803.757,789.599 C803.757,795.9 798.65,801.009 792.35,801.009 C786.05,801.009 780.944,795.9 780.944,789.599 L780.944,741.575 L762.52,741.575 L762.52,789.599 C762.52,807.04 776.668,818.107 792.351,818.107 L792.35,818.107 Z M893.702,817.12 L893.702,801.113 L862.004,801.113 L862.004,787.736 L888.984,787.736 L888.984,772.056 L862.004,772.056 L862.004,757.583 L892.714,757.583 L892.714,741.575 L843.688,741.575 L843.688,817.12 L893.709,817.12 L893.702,817.12 Z M873.864,487.678 C867.776,476.279 847.877,472.914 836.144,478.376 C825.813,483.186 819.084,494.446 814.734,507.856 C813.25,495.926 807.918,485.022 795.267,484.683 C784.494,484.409 774.63,490.06 767.786,498.971 C767.828,493.698 768.884,488.761 767.31,485.16 C765.208,480.369 744.5,482.488 741.59,483.617 C741.051961,483.432594 740.459484,483.500293 739.976913,483.801319 C739.494341,484.102344 739.172991,484.604685 739.102,485.169 C733.638,511.711 734.15,532.55 731.542,559.546 C728.762,588.333 725.182,621.966 724.074,650.866 C724.071079,652.016683 724.525455,653.121383 725.337142,653.937008 C726.148829,654.752633 727.251316,655.212351 728.402,655.215 C736.849,654.506 747.932,657.38 755.539,652.791 C757.661,651.509 757.873,646.817 757.937,646.232 C760.729,619.505 764.957,569.372 771.267,544.013 C775.883,525.463 782.736,517.685 790.245,518.708 C798.241,519.798 797.657,537.247 797.635,542.295 C797.599,549.96 795.835,585.415 796.501,593.104 L796.501,593.184 C796.497281,594.300885 796.937946,595.373387 797.72583,596.165023 C798.513713,596.956658 799.58411,597.402413 800.701,597.404 C807.145905,596.424444 813.638453,595.789209 820.151,595.501 C821.356647,595.513453 822.506002,594.991746 823.290335,594.076016 C824.074667,593.160286 824.413567,591.944414 824.216,590.755 C824.352,590.55 824.449,590.321 824.501,590.08 C826.605,579.114 829.982,540.153 832.932,529.36 C834.116,525.002 836.956,509.675 843.256,510.868 C851.318,512.398 851.606,526.581 851.666,535.636 C851.787,552.652 853.76,629.856 854,648.607 C853.883569,650.622597 854.715446,652.576863 856.248893,653.890152 C857.782339,655.203442 859.841272,655.724952 861.815,655.3 C869.264947,654.822875 876.681229,653.917042 884.027,652.587 C887.287908,651.894275 889.550044,648.918363 889.345,645.591 C888.948,615.701 889.105,516.218 873.866,487.686 L873.864,487.678 Z M350.246,566.594 C349.356,532.826 330.548,491.024 297.403,479.418 C281.783,473.71 257.057,475.207 250.278,477.506 C247.945472,478.363623 246.50659,480.710184 246.8,483.178 C247.501,506.963 247.169,541.391 248.238,569.542 C249.372,599.016 249.414,621.956 251.68,651.345 C251.625121,653.117709 252.722291,654.722633 254.394,655.315 C261.361,657.217 301.393,662.827 329.176,634.885 C346.121,617.843 350.867,590.264 350.246,566.604 L350.246,566.594 Z M282.239,504.25 C291.122,505.523 298.225,508.262 304.25,516.594 C312.095469,528.03164 317.213949,541.115885 319.212,554.841 C322.636,581.311 318.537,609.421 286.248,620.121 C285.044,587.925 283.262,534.985 282.239,504.25 Z M699.306,499.174 C699.24964,498.463822 698.935596,497.798747 698.423,497.304 C698.214009,496.22016 697.597792,495.257545 696.701,494.614 C694.335,492.934 689.941,493.208 687.191,492.87 C683.686482,492.281248 680.101093,492.377012 676.633,493.152 C673.569647,494.08773 670.908043,496.022674 669.073,498.648 C649.333,483.273 627.953,496.508 615.726,509.544 C596.916,529.604 586.743,554.815 583.441,582.847 C580.912,604.31 580.175,640.275 603.205,649.658 C616.011,654.871 630.835,645.848 640.718,638.078 C653.418,628.1 663.19,612.808 669.691,596.913 C670.568,611.193 671.789,625.401 672.874,642.216 C673.15,646.482 673.409,650.97 676.236,654.355 C680.687,659.698 698.916,652.275 704.815,651.768 C706.796923,651.260617 708.198343,649.495351 708.243,647.45 C708.678,639.063 701.988,524.46 699.306,499.175 L699.306,499.174 Z M661.972,520.847 C660.748,542.115 654.775,558.995 647.172,578.702 C643.233,588.901 631.54,617.153 619.529,617.405 C608.469,617.634 613.205,588.099 614.426,581.915 C618.321,562.062 636.248,502.036 661.98,520.845 L661.972,520.847 Z M482.91,650.779 C468.954,619.163 454.055,581.841 435.5,551.881 C451.942,544.823 465.448,532.231 466.223,514.356 C467.597,482.361 424.39,478.574 402.124,491.728 C402.124,491.728 401.763,487.54 401.827,484.22 C401.885957,481.943638 400.120986,480.034542 397.847,479.915 C388.917,479.639 378.431,478.65 369.822,481.17 C367.424695,481.86897 365.856381,484.16573 366.078,486.653 C366.35,510.055 365.348,543.879 365.946,571.578 C366.569,600.572 364.124,624.99 365.946,653.931 C365.890413,655.722342 367.018785,657.337207 368.72,657.901 C378.05428,660.331821 387.77715,660.892579 397.329,659.551 C398.046488,659.476344 398.729338,659.204658 399.302,658.766 C401.189789,658.595039 402.648362,657.034035 402.691,655.139 C401.981,629.265 402.468,566.017 402.285,558.549 C403.01,558.562 405.902,558.424 406.645,558.413 C412.632,576.375 418.165,587.223 423.3,600.783 C430.306,619.29 441.236,642.305 449.174,660.426 C450.234609,662.130082 452.210825,663.03552 454.194,662.726 C462.973699,661.563589 471.624954,659.579894 480.034,656.801 C481.303336,656.514923 482.371489,655.66276 482.932391,654.488688 C483.493293,653.314617 483.485041,651.948212 482.91,650.781 L482.91,650.779 Z M401.583,508.884 C411.411,506.048 421.453,499.019 431.519,502.329 C437.204,504.199 438.633,509.703 437.427,514.605 C435.482,522.546 428.387,530.733 401.529,532.656 C401.415,523.846 401.561,517.706 401.583,508.884 Z M562.103,506.162 C548.58,475.179 508.979,478.926 491.901,503.394 C473.337,530.009 477.102,571.19 483.91,601.039 C492.513,638.76 522.03,663.298 559.699,650.861 C562.641599,649.770986 564.703248,647.096162 565.008,643.973 C564.818,634.68 565.102,632.503 563.965,624.99 C563.171,619.713 552.74,624.514 544.439,623.578 C513.853,620.122 518.735,600.413 515.002,585.985 C533.366,581.205 544.974,576.696 557.478,558.598 C567.388,544.265 569.238,522.51 562.101,506.162 L562.103,506.162 Z M541.432,535.87 C535.985,551.752 524.044,556.668 509.79,561.67 C508.491,535.295 511.266,503.335 533.511,505.555 C542.961,506.5 544.473,526.954 541.432,535.87 Z" id="main_text" fill="#092C74" fill-rule="nonzero"></path>
            <path d="M814.309453,1008.42775 C812.937986,1008.43016 811.707863,1007.58439 811.2191,1006.30297 C810.730337,1005.02155 811.084743,1003.5714 812.10945,1002.65986 L829.23065,987.382779 L812.035685,971.195933 C810.775004,969.932085 810.745671,967.895562 811.96943,966.59593 C813.193189,965.296298 815.227795,965.203221 816.565103,966.385691 L836.383249,985.043011 C837.057144,985.677976 837.43367,986.566583 837.421122,987.492411 C837.408574,988.418238 837.008105,989.296315 836.317249,989.912783 L816.506868,1007.58916 C815.902369,1008.13012 815.119368,1008.42876 814.308159,1008.42775 L814.309453,1008.42775 Z" id="arrow" fill="#EC0044" fill-rule="nonzero"></path>
            <path d="M456.513998,1002.548 L459.505998,1002.548 C466.509998,1002.548 470.997998,1001.324 474.057998,998.672 C476.981998,996.156 478.817998,992.212 478.817998,987.316 C478.817998,982.148 476.777998,977.796 473.105998,975.212 C469.637998,972.764 464.945998,972.22 459.437998,972.22 L456.513998,972.22 L456.513998,1002.548 Z M445.701998,1012 L445.701998,962.768 L459.505998,962.768 C468.277998,962.768 475.077998,964.196 480.177998,967.732 C486.229998,971.948 489.629998,978.884 489.629998,987.316 C489.629998,995.068 486.705998,1001.664 481.469998,1005.948 C476.437998,1010.028 469.365998,1012 459.029998,1012 L445.701998,1012 Z M531.087332,1002.956 C539.587332,1002.956 545.979332,996.088 545.979332,987.384 C545.979332,978.68 539.587332,971.812 531.087332,971.812 C522.587332,971.812 516.195332,978.68 516.195332,987.384 C516.195332,996.088 522.587332,1002.956 531.087332,1002.956 Z M531.087332,1012.748 C516.467332,1012.748 505.383332,1001.732 505.383332,987.384 C505.383332,973.036 516.467332,962.02 531.087332,962.02 C545.707332,962.02 556.791332,973.036 556.791332,987.384 C556.791332,1001.732 545.707332,1012.748 531.087332,1012.748 Z M609.332666,1012 L594.576666,992.144 C591.380666,987.86 588.388666,983.712 585.328666,979.428 L585.192666,979.496 C585.260666,984.188 585.328666,988.948 585.328666,993.708 L585.328666,1012 L574.924666,1012 L574.924666,962.768 L585.124666,962.768 L599.880666,982.624 C603.076666,986.908 606.068666,991.056 609.128666,995.34 L609.264666,995.272 C609.196666,990.58 609.128666,985.82 609.128666,981.06 L609.128666,962.768 L619.532666,962.768 L619.532666,1012 L609.332666,1012 Z M635.558,1012 L655.55,962.768 L666.022,962.768 L686.014,1012 L674.454,1012 L670.51,1001.664 L650.654,1001.664 L646.642,1012 L635.558,1012 Z M655.958,987.928 L653.986,993.164 L667.246,993.164 L665.206,987.656 C663.778,983.78 662.01,978.884 660.718,975.144 L660.582,975.144 C659.29,978.884 657.522,983.78 655.958,987.928 Z M708.227334,1012 L708.227334,972.22 L692.315334,972.22 L692.315334,962.768 L734.951334,962.768 L734.951334,972.22 L719.039334,972.22 L719.039334,1012 L708.227334,1012 Z M751.792668,1012 L751.792668,962.768 L782.188668,962.768 L782.188668,972.22 L762.604668,972.22 L762.604668,981.876 L779.468668,981.876 L779.468668,990.852 L762.604668,990.852 L762.604668,1002.548 L782.936668,1002.548 L782.936668,1012 L751.792668,1012 Z" id="text" fill="#EC0044"></path>
        </g>
    </g>
</svg>