<?xml version="1.0" encoding="UTF-8"?>
<svg viewBox="0 0 1202 1228" version="1.1" xmlns="http://www.w3.org/2000/svg" xmlns:xlink="http://www.w3.org/1999/xlink">
    <g id="dream_circle_hover">
        <image id="dream_circle_hover_bg" x="0" y="0" width="100%" height="100%" xlink:href="/wp-content/themes/cdf/assets/images/dream_circle_hover_bg_new.png"></image>
        <rect id="pill" fill="#EC0044" fill-rule="nonzero" x="314" y="908" width="631" height="158" rx="79"></rect>
        <path d="M815.309453,1008.42775 C813.937986,1008.43016 812.707863,1007.58439 812.2191,1006.30297 C811.730337,1005.02155 812.084743,1003.5714 813.10945,1002.65986 L830.23065,987.382779 L813.035685,971.195933 C811.775004,969.932085 811.745671,967.895562 812.96943,966.59593 C814.193189,965.296298 816.227795,965.203221 817.565103,966.385691 L837.383249,985.043011 C838.057144,985.677976 838.43367,986.566583 838.421122,987.492411 C838.408574,988.418238 838.008105,989.296315 837.317249,989.912783 L817.506868,1007.58916 C816.902369,1008.13012 816.119368,1008.42876 815.308159,1008.42775 L815.309453,1008.42775 Z" id="arrow" fill="#FFFFFF" fill-rule="nonzero"></path>
        <path d="M457.513998,1002.548 L460.505998,1002.548 C467.509998,1002.548 471.997998,1001.324 475.057998,998.672 C477.981998,996.156 479.817998,992.212 479.817998,987.316 C479.817998,982.148 477.777998,977.796 474.105998,975.212 C470.637998,972.764 465.945998,972.22 460.437998,972.22 L457.513998,972.22 L457.513998,1002.548 Z M446.701998,1012 L446.701998,962.768 L460.505998,962.768 C469.277998,962.768 476.077998,964.196 481.177998,967.732 C487.229998,971.948 490.629998,978.884 490.629998,987.316 C490.629998,995.068 487.705998,1001.664 482.469998,1005.948 C477.437998,1010.028 470.365998,1012 460.029998,1012 L446.701998,1012 Z M532.087332,1002.956 C540.587332,1002.956 546.979332,996.088 546.979332,987.384 C546.979332,978.68 540.587332,971.812 532.087332,971.812 C523.587332,971.812 517.195332,978.68 517.195332,987.384 C517.195332,996.088 523.587332,1002.956 532.087332,1002.956 Z M532.087332,1012.748 C517.467332,1012.748 506.383332,1001.732 506.383332,987.384 C506.383332,973.036 517.467332,962.02 532.087332,962.02 C546.707332,962.02 557.791332,973.036 557.791332,987.384 C557.791332,1001.732 546.707332,1012.748 532.087332,1012.748 Z M610.332666,1012 L595.576666,992.144 C592.380666,987.86 589.388666,983.712 586.328666,979.428 L586.192666,979.496 C586.260666,984.188 586.328666,988.948 586.328666,993.708 L586.328666,1012 L575.924666,1012 L575.924666,962.768 L586.124666,962.768 L600.880666,982.624 C604.076666,986.908 607.068666,991.056 610.128666,995.34 L610.264666,995.272 C610.196666,990.58 610.128666,985.82 610.128666,981.06 L610.128666,962.768 L620.532666,962.768 L620.532666,1012 L610.332666,1012 Z M636.558,1012 L656.55,962.768 L667.022,962.768 L687.014,1012 L675.454,1012 L671.51,1001.664 L651.654,1001.664 L647.642,1012 L636.558,1012 Z M656.958,987.928 L654.986,993.164 L668.246,993.164 L666.206,987.656 C664.778,983.78 663.01,978.884 661.718,975.144 L661.582,975.144 C660.29,978.884 658.522,983.78 656.958,987.928 Z M709.227334,1012 L709.227334,972.22 L693.315334,972.22 L693.315334,962.768 L735.951334,962.768 L735.951334,972.22 L720.039334,972.22 L720.039334,1012 L709.227334,1012 Z M752.792668,1012 L752.792668,962.768 L783.188668,962.768 L783.188668,972.22 L763.604668,972.22 L763.604668,981.876 L780.468668,981.876 L780.468668,990.852 L763.604668,990.852 L763.604668,1002.548 L783.936668,1002.548 L783.936668,1012 L752.792668,1012 Z" id="text" fill="#FFFFFF"></path>
    </g>
</svg>
