<svg id="Layer_1" data-name="Layer 1" xmlns="http://www.w3.org/2000/svg" viewBox="0 0 455.57 512"><defs><style>.cls-1{fill:#333}</style></defs><title>encourage_kids</title><path class="cls-1" d="M415 339.4a9.36 9.36 0 0 1-9.36-9.36c0-28.14-10.8-55.32-31.23-78.58a9.36 9.36 0 0 1 14.07-12.36c23.47 26.73 35.88 58.17 35.88 90.93a9.36 9.36 0 0 1-9.36 9.37M318.39 117.65a9.37 9.37 0 0 1-9-6.72 85.22 85.22 0 0 0-65.69-59.5A9.36 9.36 0 0 1 247.21 33a103.94 103.94 0 0 1 80.16 72.62 9.37 9.37 0 0 1-9 12M279 334.72a9.34 9.34 0 0 1-6.94-3.07l-.11-.12-.31-.32a10.63 10.63 0 0 0-7.57-3.13 9.36 9.36 0 0 1 0-18.72 29.22 29.22 0 0 1 20.8 8.64c.33.33.65.66 1 1l.08.09a9.36 9.36 0 0 1-6.95 15.63M359.27 218.1a9.36 9.36 0 1 1-9.36 9.36 9.36 9.36 0 0 1 9.36-9.36"/><path class="cls-1" d="M357 174.16a134.56 134.56 0 0 0 5.8-39.16c0-74.44-60.56-135-135-135s-135 60.56-135 135a134.55 134.55 0 0 0 5.8 39.16C36.7 209.53 0 267.28 0 330c0 81.84 62.78 154 156.21 179.67a64.31 64.31 0 0 0 71.57-28.55 64.67 64.67 0 0 0 16 17.69 63.34 63.34 0 0 0 55.56 10.85c93.45-25.58 156.23-97.79 156.23-179.66 0-62.74-36.7-120.49-98.58-155.87m-129.2-59.61A98.65 98.65 0 0 0 343.91 141a116.28 116.28 0 0 1-232.25 0 98.65 98.65 0 0 0 116.13-26.44m115.36 5.83A79.9 79.9 0 0 1 230.26 18.76a116.45 116.45 0 0 1 112.88 101.62M209.69 20.14a98.63 98.63 0 0 0 7 78.19 79.91 79.91 0 0 1-104.3 22 116.54 116.54 0 0 1 97.3-100.19M200.42 484a44.75 44.75 0 0 1-39.26 7.69 235 235 0 0 1-39-14.46 136 136 0 0 1 40.39-86.49 100.76 100.76 0 0 0 26 14.17A45.59 45.59 0 0 1 200.42 484m98.51-127.24c-7.91 13.49-21.55 24.36-38.41 30.59a64.55 64.55 0 0 0-32.74 27.05A64.55 64.55 0 0 0 195 387.3c-16.86-6.23-30.51-17.1-38.41-30.59-8.93-15.23-7.4-33.75 3.8-46.06.46-.51.94-1 1.43-1.5a42 42 0 0 1 59.3 0 9.36 9.36 0 0 0 13.24 0 41.93 41.93 0 0 1 59.31 0q.73.73 1.43 1.49c11.2 12.32 12.73 30.83 3.8 46.07m-4.5 134.93a44.75 44.75 0 0 1-39.25-7.64A45.59 45.59 0 0 1 267 404.87a100.77 100.77 0 0 0 26-14.17 136 136 0 0 1 40.39 86.49 235.06 235.06 0 0 1-39 14.46m56.82-24a154.9 154.9 0 0 0-44.54-89.76 80.12 80.12 0 0 0 8.4-11.71c13.09-22.34 10.64-49.72-6.1-68.13q-1-1.09-2-2.14a60.68 60.68 0 0 0-79.17-5.74 60.75 60.75 0 0 0-79.16 5.74q-1.05 1.05-2 2.14c-16.74 18.41-19.19 45.79-6.1 68.13a80.19 80.19 0 0 0 8.41 11.71 154.9 154.9 0 0 0-44.54 89.76C51.49 436.15 18.72 385.48 18.72 330c0-55 32.2-106 86.64-138.15a135 135 0 0 0 244.83 0C404.64 224 436.84 275 436.84 330c0 55.45-32.77 106.12-85.61 137.63"/><path class="cls-1" d="M139.7 170.64a9.36 9.36 0 0 0 0 13.24 48.12 48.12 0 0 0 68 0 9.36 9.36 0 0 0-13.24-13.24 29.37 29.37 0 0 1-41.49 0 9.36 9.36 0 0 0-13.24 0M281.89 197.93a47.91 47.91 0 0 0 34-14.05 9.36 9.36 0 1 0-13.24-13.24 29.37 29.37 0 0 1-41.49 0 9.36 9.36 0 1 0-13.24 13.24 47.9 47.9 0 0 0 34 14.05"/></svg>