<svg id="Layer_1" data-name="Layer 1" xmlns="http://www.w3.org/2000/svg" viewBox="0 0 512 477.89"><defs><style>.cls-1{fill:#333}</style></defs><title>start_legacy</title><path class="cls-1" d="M297.92 190.45a8.57 8.57 0 0 1-8.57-8.57 4.14 4.14 0 0 0-4.16-4.16 8.57 8.57 0 1 1 0-17.14 21.27 21.27 0 0 1 21.29 21.29 8.57 8.57 0 0 1-8.57 8.57"/><path class="cls-1" d="M493.26 274.13a76.51 76.51 0 0 0-61.07 8.36 301.39 301.39 0 0 0 15.79-66 76.65 76.65 0 0 0 63.26-86.27 8.56 8.56 0 0 0-9.67-7.29 76.5 76.5 0 0 0-52.47 32.47 293.13 293.13 0 0 0-7.74-46.4A76.66 76.66 0 0 0 466.81 4.15a8.57 8.57 0 0 0-11.76-2.91 76.2 76.2 0 0 0-34.85 47.23c-.15.62-.27 1.23-.41 1.85q-5.67-11.52-12.35-22.66a8.57 8.57 0 1 0-14.67 8.85 281.26 281.26 0 0 1 29.62 67.95 76.75 76.75 0 0 0-75-21.19 8.57 8.57 0 0 0-6.1 10.47 76.59 76.59 0 0 0 90 55.45 278.22 278.22 0 0 1-1.07 71 76.12 76.12 0 0 0-38.28-38.47 8.57 8.57 0 0 0-11.37 4.28A76.78 76.78 0 0 0 413 284.66a277.55 277.55 0 0 1-31.8 58.55 76.81 76.81 0 0 0-45-72.35 8.57 8.57 0 0 0-11.34 4.26 76.7 76.7 0 0 0 31.57 98.15A282.18 282.18 0 0 1 256 441.15a282.2 282.2 0 0 1-100.52-67.87 76.7 76.7 0 0 0 31.57-98.15 8.57 8.57 0 0 0-11.34-4.26 76.81 76.81 0 0 0-45 72.35A277.5 277.5 0 0 1 99 284.67 76.78 76.78 0 0 0 131.44 186a8.57 8.57 0 0 0-11.34-4.26 76.12 76.12 0 0 0-38.28 38.47 278.21 278.21 0 0 1-1.07-71 76.68 76.68 0 0 0 90-55.45 8.57 8.57 0 0 0-6.1-10.47 76.2 76.2 0 0 0-58.17 7.87 77 77 0 0 0-16.83 13.23 281.23 281.23 0 0 1 29.6-67.86 8.57 8.57 0 1 0-14.67-8.85q-6.72 11.11-12.37 22.64c-.14-.62-.26-1.24-.41-1.85A76.2 76.2 0 0 0 57 1.23a8.57 8.57 0 0 0-11.81 2.92A76.77 76.77 0 0 0 70.64 109a293.19 293.19 0 0 0-7.74 46.33c-.61-.88-1.23-1.76-1.88-2.63a76.2 76.2 0 0 0-50.58-29.78 8.57 8.57 0 0 0-9.68 7.29A76.65 76.65 0 0 0 64 216.51a301.31 301.31 0 0 0 15.77 65.93c-.9-.55-1.81-1.09-2.73-1.61a76.19 76.19 0 0 0-58.32-6.7 8.57 8.57 0 0 0-5.88 10.59 76.61 76.61 0 0 0 93.67 53 295.55 295.55 0 0 0 99 97.53A298.42 298.42 0 0 0 232 449.41a278.1 278.1 0 0 1-77.23 11.34 8.57 8.57 0 0 0 0 17.14A295.62 295.62 0 0 0 256 459.5a295.62 295.62 0 0 0 101.15 18.39 8.57 8.57 0 0 0 0-17.14A278.16 278.16 0 0 1 280 449.41a298.11 298.11 0 0 0 26.45-14.18 295.57 295.57 0 0 0 99-97.53 76.67 76.67 0 0 0 93.67-53 8.57 8.57 0 0 0-5.88-10.59M436.83 52.59a59.13 59.13 0 0 1 19.48-31.27 59.7 59.7 0 0 1-16.85 68 59.13 59.13 0 0 1-2.62-36.75m-75.93 45.59a59.7 59.7 0 0 1 60.55 35.25 59.7 59.7 0 0 1-60.55-35.25M337.37 291A59.7 59.7 0 0 1 362 356.55 59.7 59.7 0 0 1 337.37 291m-185.72 28.75a59.13 59.13 0 0 1 23-28.8A59.71 59.71 0 0 1 150 356.56a59.12 59.12 0 0 1 1.67-36.8m-36.57-213.8a59.12 59.12 0 0 1 36-7.79 59.63 59.63 0 0 1-60.57 35.26 59.12 59.12 0 0 1 24.56-27.47m-59.4-84.64a59.63 59.63 0 0 1 16.85 68 59.7 59.7 0 0 1-16.85-68M29.15 176.74a59.13 59.13 0 0 1-12-34.84A59.11 59.11 0 0 1 47.33 163a59.13 59.13 0 0 1 12 34.84 59.11 59.11 0 0 1-30.19-21.13m3.43 112a59.7 59.7 0 0 1 61.25 34 59.69 59.69 0 0 1-61.25-34M119 201.86a59.63 59.63 0 0 1-24.65 65.6 59.71 59.71 0 0 1 24.65-65.6m375.84-59.95a59.63 59.63 0 0 1-42.19 56 59.71 59.71 0 0 1 42.19-56M393 201.86a59.63 59.63 0 0 1 24.65 65.6 59.7 59.7 0 0 1-24.65-65.6m61.33 113.86a59.12 59.12 0 0 1-36.16 7.07 59.63 59.63 0 0 1 61.27-34 59.13 59.13 0 0 1-25.11 27"/><path class="cls-1" d="M249.94 275.52a8.57 8.57 0 0 0 12.12 0l58.38-58.38A49.86 49.86 0 0 0 256 141.46a49.86 49.86 0 0 0-64.44 75.67zm-46.27-116.77a32.72 32.72 0 0 1 46.27 0 8.57 8.57 0 0 0 12.12 0A32.72 32.72 0 0 1 308.33 205L256 257.34 203.67 205a32.72 32.72 0 0 1 0-46.27"/></svg>