<svg id="Layer_1" data-name="Layer 1" xmlns="http://www.w3.org/2000/svg" viewBox="0 0 471.63 512"><defs><style>.cls-1{fill:#333}</style></defs><title>volunteer_time</title><path class="cls-1" d="M345.82 226.45a8.84 8.84 0 0 1-8.84-8.84 43.39 43.39 0 0 0-9.14-26.66 44.51 44.51 0 0 0-3.56-4 43 43 0 0 0-23.69-12.15 44.36 44.36 0 0 0-7-.56 8.84 8.84 0 1 1 0-17.68 62.06 62.06 0 0 1 9.8.78 60.61 60.61 0 0 1 33.39 17.1 61.81 61.81 0 0 1 5 5.62 61.14 61.14 0 0 1 12.9 37.56 8.84 8.84 0 0 1-8.84 8.84"/><path class="cls-1" d="M452.66 105.09a65.63 65.63 0 0 0-34.53 9.78V60.42a34.47 34.47 0 0 0-51.56-30 34.48 34.48 0 0 0-68.73 4v32a34.47 34.47 0 0 0-51.31 30.1v43.64a90.61 90.61 0 0 0-10.71 7.64 90.51 90.51 0 0 0-10.71-7.64V96.61a34.47 34.47 0 0 0-51.31-30.1v-32a34.48 34.48 0 0 0-68.73-4 34.47 34.47 0 0 0-51.56 30v54.45A65.64 65.64 0 0 0 19 105.09a19 19 0 0 0-19 19v221.62a54.65 54.65 0 0 0 10.65 32.53l59.89 81.67v43.24a8.84 8.84 0 1 0 17.68 0V457a8.84 8.84 0 0 0-1.71-5.23l-61.6-84a37.09 37.09 0 0 1-7.23-22.08V124.06a1.29 1.29 0 0 1 1.32-1.29 48.42 48.42 0 0 1 48.36 48.36v71.06a8.84 8.84 0 0 0 8.82 8.81 100.29 100.29 0 0 1 100.17 100.21v28.86a8.84 8.84 0 0 0 17.68 0v-18.45L227 394.57v108.59a8.84 8.84 0 0 0 17.68 0V394.57l32.94-32.94v18.44a8.84 8.84 0 0 0 17.68 0v-28.86A100.29 100.29 0 0 1 395.45 251a8.84 8.84 0 0 0 8.84-8.84v-71.03a48.42 48.42 0 0 1 48.36-48.36 1.29 1.29 0 0 1 1.29 1.29v221.65a37.09 37.09 0 0 1-7.23 22.08l-61.6 84a8.84 8.84 0 0 0-1.71 5.23v46.14a8.84 8.84 0 0 0 17.68 0v-43.24L461 378.24a54.65 54.65 0 0 0 10.65-32.53V124.06a19 19 0 0 0-19-19M315.52 34.5a16.81 16.81 0 1 1 33.61 0v111.64a89.67 89.67 0 0 0-33.62-16.4V34.5zm-51.31 62.11a16.82 16.82 0 1 1 33.63 0v30.56c-1.41-.07-2.83-.1-4.25-.1a90.6 90.6 0 0 0-29.38 4.88V96.61zm-73.6-16.82a16.83 16.83 0 0 1 16.82 16.82v35.33a90.65 90.65 0 0 0-29.37-4.87c-1.43 0-2.84 0-4.26.1V96.61a16.83 16.83 0 0 1 16.82-16.82M122.5 34.5a16.81 16.81 0 1 1 33.62 0v95.24a89.56 89.56 0 0 0-33.62 16.4V34.5zm-51.32 96.26V60.42a16.82 16.82 0 0 1 33.63 0v103.94a89.82 89.82 0 0 0-17.3 53.24A90.88 90.88 0 0 0 89 234.05c-1.33-.15-2.66-.28-4-.38v-62.54a65.68 65.68 0 0 0-13.83-40.37m207.46 204.83l-42.81 42.81L193 335.58a118.19 118.19 0 0 0-85-97.85 72.86 72.86 0 0 1 121.54-71.64 8.84 8.84 0 0 0 12.5 0 72.84 72.84 0 0 1 121.53 71.64 118.19 118.19 0 0 0-85 97.86m108-164.46v62.54c-1.35.1-2.68.23-4 .38a90.41 90.41 0 0 0-15.79-69.7V60.42a16.82 16.82 0 0 1 33.63 0v70.34a65.71 65.71 0 0 0-13.83 40.37"/></svg>