<svg viewBox="0 0 40 40" version="1.1" xmlns="http://www.w3.org/2000/svg" xmlns:xlink="http://www.w3.org/1999/xlink">
    <path d="M40,20 C40,31.045695 31.045695,40 20,40 C8.954305,40 1.3527075e-15,31.045695 0,20 C-1.3527075e-15,8.954305 8.954305,2.02906125e-15 20,0 C31.045695,6.76353751e-16 40,8.954305 40,20 Z M16.93,31.5 L21.71,31.5 L21.71,20 L24.93,20 L25.35,16 L21.71,16 L21.71,13.36 C21.7042749,12.9091977 22.0594546,12.536259 22.51,12.52 C22.9354722,12.4805561 23.3627474,12.4638656 23.79,12.47 L25.27,12.47 L25.27,8.55 C23.7877604,8.46944268 22.3022396,8.46944268 20.82,8.55 C18.8189002,8.6590467 17.2073565,10.2321185 17.05,12.23 C16.9453861,13.2832625 16.9019798,14.3417083 16.92,15.4 L16.92,15.93 L14.66,15.93 L14.66,20 L16.93,20 L16.93,31.5 L16.93,31.5 Z" id="social-icon-facebook" stroke="none" fill="#002D73" fill-rule="evenodd"></path>
</svg>
