<svg  viewBox="0 0 40 40" version="1.1" xmlns="http://www.w3.org/2000/svg" xmlns:xlink="http://www.w3.org/1999/xlink">
    <path d="M18.6601453,0 L21.3172533,0 L21.6493918,0.0704515251 C22.4747057,0.191225568 23.3100844,0.25161259 24.1555278,0.432773654 C28.1870847,1.26164647 31.8518965,3.34770801 34.6229232,6.39095978 C38.7842536,10.7483348 40.6879068,16.790023 39.7761025,22.7457781 C39.1380128,27.88709 36.4527105,32.553571 32.3281481,35.6887297 C28.0905231,39.1062148 22.6148261,40.5919097 17.2309432,39.7849827 C13.3753823,39.2898793 9.76067795,37.6369909 6.86419583,35.0446015 C3.27430437,31.9475981 0.922712786,27.6591089 0.241555278,22.9671972 C0.140907246,22.443843 0.0805184261,21.8802308 -1.77635684e-14,21.3166186 L-1.77635684e-14,18.6595896 C0.0603888196,18.186558 0.110712836,17.7135263 0.181166459,17.2404946 C1.42330197,8.49379525 8.23932437,1.5880789 16.9692583,0.231483582 C17.5328873,0.14090305 18.1166459,0.0805160287 18.6601453,0 Z M19.9484401,31.3207352 L27.3259409,31.3207352 C29.4958285,31.1964461 31.2275694,29.4647567 31.3518622,27.2949337 L31.3518622,24.8391949 L31.3518622,12.7014035 C31.2275694,10.5315805 29.4958285,8.79989119 27.3259409,8.67560209 L12.7319761,8.67560209 C10.549916,8.77249428 8.80294989,10.5194084 8.70605482,12.7014035 C8.65573081,15.9119802 8.70605482,19.1326213 8.70605482,22.343198 L8.70605482,27.2949337 C8.82136745,29.4687696 10.5580755,31.205426 12.7319761,31.3207352 C15.1676585,31.3811222 17.5932761,31.3207352 20.0289585,31.3207352 L19.9484401,31.3207352 Z M10.8498579,17.6732683 L14.1813078,17.6732683 C13.2654107,20.7630709 13.9296877,23.3597128 16.6471846,25.201517 C18.744665,26.6061912 21.4945826,26.5580189 23.5415748,25.0807429 C25.886674,23.3999708 26.5610158,21.0549415 25.786026,17.6833328 L29.107411,17.6833328 C29.1129886,17.7771854 29.1129886,17.8712863 29.107411,17.9651389 L29.107411,26.8219021 C29.1897755,27.8779731 28.4884343,28.835874 27.4567833,29.0763509 C27.2022805,29.131268 26.9420274,29.1549267 26.6817935,29.1468024 L13.2452811,29.1468024 C12.1630999,29.2641611 11.1609287,28.5630922 10.9001819,27.5062883 C10.8491589,27.2920752 10.8254858,27.0722602 10.8297283,26.8520956 L10.8297283,17.9148164 L10.8297283,17.6732683 L10.8498579,17.6732683 Z M19.9786345,23.983712 C18.3421468,23.9832978 16.8687448,22.9923518 16.2512909,21.476863 C15.633837,19.9613743 15.9952078,18.2229333 17.16547,17.0790362 C18.3357321,15.935139 20.0819971,15.6134273 21.5830896,16.265185 C23.0841821,16.9169427 24.0413767,18.4124664 24.0045558,20.0484911 C23.9553134,22.2364271 22.1671895,23.9842661 19.9786345,23.983712 Z M24.8801937,11.272244 L28.7048189,11.272244 L28.7048189,15.0766264 L24.8801937,15.0766264 L24.8801937,11.272244 Z" id="social-icon-instagram" stroke="none" fill="#002D73" fill-rule="evenodd"></path>
</svg>
