<svg viewBox="0 0 40 40" version="1.1" xmlns="http://www.w3.org/2000/svg" xmlns:xlink="http://www.w3.org/1999/xlink">
    <path d="M40,20 C40,31.045695 31.045695,40 20,40 C8.954305,40 1.3527075e-15,31.045695 0,20 C-1.3527075e-15,8.954305 8.954305,2.02906125e-15 20,0 C31.045695,6.76353751e-16 40,8.954305 40,20 Z M8.78,27.29 L9.06,27.47 C10.9976972,28.5947083 13.1899518,29.2073007 15.43,29.25 C17.9706234,29.3733459 20.4886878,28.7211602 22.65,27.38 C26.5645677,24.9945843 28.9666901,20.7539872 29,16.17 C28.9777694,15.6397183 29.2215959,15.1333095 29.65,14.82 C30.166794,14.3490405 30.644993,13.837401 31.08,13.29 C31.1342705,13.2182283 31.1811739,13.1411727 31.22,13.06 L28.84,13.7 L28.78,13.59 C29.6463664,13.0423212 30.3019169,12.2175963 30.64,11.25 L28.19,12.14 C27.9383023,12.2524607 27.6432202,12.1966344 27.45,12 C26.142446,10.7597669 24.2169792,10.4283341 22.57,11.16 C20.8866729,11.784622 19.7484598,13.3654735 19.69,15.16 L19.69,16.5 C15.9523193,16.2768629 12.4784835,14.5000575 10.11,11.6 C8.93827816,13.7335994 9.53345441,16.4054698 11.5,17.84 L11.44,17.92 L9.44,17.37 C9.46638309,19.5276653 10.952652,21.3927063 13.05,21.9 L13.05,22 L11.12,22 C11.7508255,23.885647 13.4830912,25.1838507 15.47,25.26 C13.5554147,26.7065431 11.1845071,27.4163957 8.79,27.26 L8.78,27.29 Z" id="social-icon-twitter" stroke="none" fill="#002D73" fill-rule="evenodd"></path>
</svg>
